<svg width="164" height="55" viewBox="0 0 164 55" fill="none" xmlns="http://www.w3.org/2000/svg">
<path d="M30.2448 22.443C29.2802 25.8643 27.7741 29.8482 26.8402 33.281C18.9154 33.953 11.5574 34.1727 3.65256 35.054C2.4224 33.998 1.20488 32.9238 0 31.8314C2.20382 22.322 4.49345 12.8347 6.86888 3.36947C6.04245 2.03896 5.63059 1.35355 4.80415 0C14.1975 1.03484 23.6044 1.91895 33.0249 2.65237C33.8377 3.76112 34.2659 4.3083 35.0923 5.39114C34.3155 8.05216 33.5469 10.7161 32.7864 13.3828C29.0236 13.3003 25.2609 13.2129 21.4981 13.1208C22.04 11.0895 22.5937 9.05916 23.1591 7.0298L17.534 6.68421C15.583 13.9588 13.6863 21.2478 11.8438 28.5512L17.534 28.1768C18.0163 26.3721 18.5022 24.5683 18.9917 22.7655C22.7382 22.6503 26.4892 22.5428 30.2448 22.443Z" fill="url(#paint0_linear_692_90)"/>
<path d="M35.5941 26.108C34.4509 25.2625 33.8879 24.8318 32.7383 23.9568C34.5 17.7397 36.305 11.5392 38.1535 5.35532C37.5136 4.503 37.1766 4.07456 36.524 3.2041C43.9376 3.72547 51.3562 4.12821 58.7797 4.41232C59.443 5.15583 59.7757 5.52533 60.439 6.25978C58.565 11.8951 56.7166 17.5425 54.8938 23.202C53.6439 23.9613 53.0169 24.3354 51.7671 25.1288C46.3768 25.3947 40.9858 25.7212 35.5941 26.108ZM46.5716 7.40452C45.0473 12.2404 43.5544 17.0891 42.0927 21.9507C43.5885 21.8902 45.0815 21.8313 46.5716 21.7739C48.0233 17.0272 49.5021 12.2895 51.0078 7.56093C49.5276 7.51106 48.0489 7.45892 46.5716 7.40452Z" fill="url(#paint1_linear_692_90)"/>
<path d="M84.1614 11.9142C81.184 11.9142 78.2066 11.9105 75.2292 11.9029C75.6473 10.6229 76.066 9.34216 76.4854 8.06065C75.0053 8.05159 73.5258 8.03873 72.0471 8.02211C71.4784 9.6663 70.9096 11.309 70.3409 12.9502C74.0861 12.9623 77.8305 12.9691 81.5743 12.9706C82.2141 13.6506 82.5213 14.002 83.1504 14.6911C82.0456 17.9251 80.9409 21.1606 79.8361 24.3976C73.5571 24.4323 67.2817 24.551 61.0099 24.7535C59.8859 23.9895 59.325 23.6042 58.2031 22.8267C58.7349 21.2157 59.2695 19.6048 59.807 17.9938C62.7574 17.9591 65.707 17.9311 68.656 17.91L67.5597 21.2218L72.0535 21.1628C72.6038 19.5307 73.1561 17.8986 73.7107 16.2665C70.466 16.2665 67.2213 16.2778 63.9766 16.3005C62.7908 15.5026 62.1957 15.1014 61.0099 14.2876C61.8758 11.6309 62.7488 8.97644 63.629 6.32427C62.9891 5.60795 62.6671 5.24753 62.0251 4.52441C69.4501 4.7511 76.8758 4.86066 84.3021 4.8531L85.9273 6.56909L84.1614 11.9142Z" fill="url(#paint2_linear_692_90)"/>
<path d="M83.4414 24.3893C85.4519 18.4427 87.4582 12.4945 89.4601 6.5449L87.8499 4.83344C91.5951 4.79868 95.3396 4.73598 99.0833 4.64531C99.736 5.34122 100.062 5.68804 100.713 6.38849L100.981 17.0198C103.379 12.8217 105.74 8.60014 108.067 4.35515C111.569 4.21309 115.069 4.04686 118.569 3.85645C119.221 4.57956 119.545 4.94225 120.198 5.6699C118.219 12.1802 116.188 18.6724 114.107 25.1464C111.156 25.0059 108.207 24.8827 105.258 24.7769C106.893 19.7899 108.506 14.7901 110.097 9.77737C107.363 14.7734 104.574 19.7355 101.73 24.6636C99.9926 24.6107 98.2544 24.5661 96.5154 24.5298L96.1955 12.9192C94.9016 16.7667 93.5999 20.6113 92.2904 24.4527C89.3414 24.4195 86.3918 24.3983 83.4414 24.3893Z" fill="url(#paint3_linear_692_90)"/>
<path d="M117.74 25.3186C119.796 18.7388 121.8 12.1394 123.75 5.52028C123.111 4.76543 122.806 4.38687 122.174 3.64562C125.122 3.46125 128.068 3.26103 131.013 3.04492C131.676 3.82017 132.007 4.21232 132.668 5.00344C130.705 11.9852 128.676 18.9444 126.581 25.8808C123.636 25.6768 120.689 25.4894 117.74 25.3186Z" fill="url(#paint4_linear_692_90)"/>
<path d="M158.355 22.1255C157.42 25.4404 155.961 29.649 155.056 32.975C147.378 33.6261 140.249 33.4903 132.59 34.3441C131.398 33.321 130.218 32.2803 129.051 31.2218C131.186 22.0083 133.404 12.8162 135.706 3.64549C134.905 2.35638 134.506 1.69229 133.705 0.380859C142.807 1.3835 151.69 1.52127 160.817 2.23186C161.605 3.30612 162.25 4.55511 163.051 5.60426C162.299 8.18248 161.554 10.7635 160.817 13.3473C157.171 13.2673 153.526 13.1827 149.88 13.0934C150.405 11.1253 150.941 9.15814 151.489 7.19193L146.039 6.85709C144.149 13.9053 142.311 20.9676 140.526 28.0437L146.039 27.681C146.506 25.9324 146.977 24.1847 147.452 22.438C151.082 22.3264 154.716 22.2222 158.355 22.1255Z" fill="url(#paint5_linear_692_90)"/>
<path d="M52.5459 44.9596L54.6376 54.9769H47.7103L45.5755 44.9334H44.2528L41.712 54.9769H34.2617L39.3926 33.0068L38.0761 30.8359H56.9939L58.3597 32.9348L55.5666 44.9596H52.5459ZM46.6152 34.8442L45.1633 40.9056H48.9777L50.3865 34.8442H46.6152Z" fill="url(#paint6_linear_692_90)"/>
<path d="M54.6934 49.5773L61.1528 32.5078L60.1105 30.8359H70.1511L71.2795 32.5078L72.8 49.5773H67.3637L66.8856 44.0433H62.6637L60.5647 49.5773H54.6934ZM63.8686 40.8926H66.6035L66.0775 35.0588L63.8686 40.8926Z" fill="url(#paint7_linear_692_90)"/>
<path d="M73.4596 49.5773L74.176 46.8815L72.5888 32.5434L71.5273 30.8359H89.0494L90.14 32.4113L89.2313 34.6154H80.8672L79.3338 35.6613L78.4436 38.6363H85.7462L85.3852 40.2117L83.5448 41.787H78.4436L80.1702 49.5925L73.4596 49.5773Z" fill="url(#paint8_linear_692_90)"/>
<path d="M92.1908 49.5569L90.9362 46.8815L93.5025 34.6217H88.7036L89.5848 33.037L88.5664 30.8359H104.717L105.713 32.4113L105.153 34.6217H99.4217L95.8913 49.5773L92.1908 49.5569Z" fill="url(#paint9_linear_692_90)"/>
<path d="M124.327 39.5044H116.783L117.841 34.7962H114.097L112.647 40.7985H122.155L123.489 42.9119L120.686 54.8189H104.778L102.404 52.4453L103.763 46.8007H111.239L110.309 50.787H114.109L115.504 44.8303H107.287L104.778 42.4307L106.993 32.9234L105.635 30.8359H124.449L125.832 32.9494L124.327 39.5044Z" fill="url(#paint10_linear_692_90)"/>
<defs>
<linearGradient id="paint0_linear_692_90" x1="17.5461" y1="0" x2="17.5461" y2="35.054" gradientUnits="userSpaceOnUse">
<stop stop-color="white"/>
<stop offset="1" stop-color="#C1CED6"/>
</linearGradient>
<linearGradient id="paint1_linear_692_90" x1="46.5887" y1="3.2041" x2="46.5887" y2="26.108" gradientUnits="userSpaceOnUse">
<stop stop-color="white"/>
<stop offset="1" stop-color="#C1CED6"/>
</linearGradient>
<linearGradient id="paint2_linear_692_90" x1="72.0652" y1="4.52441" x2="72.0652" y2="24.7535" gradientUnits="userSpaceOnUse">
<stop stop-color="white"/>
<stop offset="1" stop-color="#C1CED6"/>
</linearGradient>
<linearGradient id="paint3_linear_692_90" x1="101.82" y1="3.85645" x2="101.82" y2="25.1464" gradientUnits="userSpaceOnUse">
<stop stop-color="white"/>
<stop offset="1" stop-color="#C1CED6"/>
</linearGradient>
<linearGradient id="paint4_linear_692_90" x1="125.204" y1="3.04492" x2="125.204" y2="25.8808" gradientUnits="userSpaceOnUse">
<stop stop-color="white"/>
<stop offset="1" stop-color="#C1CED6"/>
</linearGradient>
<linearGradient id="paint5_linear_692_90" x1="146.051" y1="0.380859" x2="146.051" y2="34.3441" gradientUnits="userSpaceOnUse">
<stop stop-color="white"/>
<stop offset="1" stop-color="#C1CED6"/>
</linearGradient>
<linearGradient id="paint6_linear_692_90" x1="46.3107" y1="30.8359" x2="46.3107" y2="54.9769" gradientUnits="userSpaceOnUse">
<stop stop-color="white"/>
<stop offset="1" stop-color="#C1CED6"/>
</linearGradient>
<linearGradient id="paint7_linear_692_90" x1="63.7467" y1="30.8359" x2="63.7467" y2="49.5773" gradientUnits="userSpaceOnUse">
<stop stop-color="white"/>
<stop offset="1" stop-color="#C1CED6"/>
</linearGradient>
<linearGradient id="paint8_linear_692_90" x1="80.8336" y1="30.8359" x2="80.8336" y2="49.5925" gradientUnits="userSpaceOnUse">
<stop stop-color="white"/>
<stop offset="1" stop-color="#C1CED6"/>
</linearGradient>
<linearGradient id="paint9_linear_692_90" x1="97.1396" y1="30.8359" x2="97.1396" y2="49.5773" gradientUnits="userSpaceOnUse">
<stop stop-color="white"/>
<stop offset="1" stop-color="#C1CED6"/>
</linearGradient>
<linearGradient id="paint10_linear_692_90" x1="114.118" y1="30.8359" x2="114.118" y2="54.8189" gradientUnits="userSpaceOnUse">
<stop stop-color="white"/>
<stop offset="1" stop-color="#C1CED6"/>
</linearGradient>
</defs>
</svg>
