<svg width="173" height="221" viewBox="0 0 173 221" fill="none" xmlns="http://www.w3.org/2000/svg">
<path d="M34.2448 188.146C33.2802 191.567 31.7741 195.551 30.8402 198.984C22.9154 199.656 15.5574 199.876 7.65256 200.757C6.4224 199.701 5.20488 198.627 4 197.535C6.20382 188.025 8.49345 178.538 10.8689 169.073C10.0424 167.742 9.63059 167.057 8.80415 165.703C18.1975 166.738 27.6044 167.622 37.0249 168.355C37.8377 169.464 38.2659 170.011 39.0923 171.094C38.3155 173.755 37.5469 176.419 36.7864 179.086C33.0236 179.003 29.2609 178.916 25.4981 178.824C26.04 176.793 26.5937 174.762 27.1591 172.733L21.534 172.387C19.583 179.662 17.6863 186.951 15.8438 194.254L21.534 193.88C22.0163 192.075 22.5022 190.271 22.9917 188.469C26.7382 188.353 30.4892 188.246 34.2448 188.146Z" fill="url(#paint0_linear_691_46)"/>
<path d="M39.5941 191.811C38.4509 190.966 37.8879 190.535 36.7383 189.66C38.5 183.443 40.305 177.242 42.1535 171.058C41.5136 170.206 41.1766 169.778 40.524 168.907C47.9376 169.429 55.3562 169.831 62.7797 170.115C63.443 170.859 63.7757 171.228 64.439 171.963C62.565 177.598 60.7166 183.246 58.8938 188.905C57.6439 189.664 57.0169 190.038 55.7671 190.832C50.3768 191.098 44.9858 191.424 39.5941 191.811ZM50.5716 173.108C49.0473 177.944 47.5544 182.792 46.0927 187.654C47.5885 187.593 49.0815 187.534 50.5716 187.477C52.0233 182.73 53.5021 177.993 55.0078 173.264C53.5276 173.214 52.0489 173.162 50.5716 173.108Z" fill="url(#paint1_linear_691_46)"/>
<path d="M88.1614 177.617C85.184 177.617 82.2066 177.614 79.2292 177.606C79.6473 176.326 80.066 175.045 80.4854 173.764C79.0053 173.755 77.5258 173.742 76.0471 173.725C75.4784 175.369 74.9096 177.012 74.3409 178.653C78.0861 178.665 81.8305 178.672 85.5743 178.674C86.2141 179.354 86.5213 179.705 87.1504 180.394C86.0456 183.628 84.9409 186.864 83.8361 190.101C77.5571 190.135 71.2817 190.254 65.0099 190.457C63.8859 189.693 63.325 189.307 62.2031 188.53C62.7349 186.919 63.2695 185.308 63.807 183.697C66.7574 183.662 69.707 183.634 72.656 183.613L71.5597 186.925L76.0535 186.866C76.6038 185.234 77.1561 183.602 77.7107 181.97C74.466 181.97 71.2213 181.981 67.9766 182.004C66.7908 181.206 66.1957 180.804 65.0099 179.991C65.8758 177.334 66.7488 174.68 67.629 172.027C66.9891 171.311 66.6671 170.951 66.0251 170.228C73.4501 170.454 80.8758 170.564 88.3021 170.556L89.9273 172.272L88.1614 177.617Z" fill="url(#paint2_linear_691_46)"/>
<path d="M87.4414 190.092C89.4519 184.146 91.4582 178.198 93.4601 172.248L91.8499 170.537C95.5951 170.502 99.3396 170.439 103.083 170.348C103.736 171.044 104.062 171.391 104.713 172.092L104.981 182.723C107.379 178.525 109.74 174.303 112.067 170.058C115.569 169.916 119.069 169.75 122.569 169.56C123.221 170.283 123.545 170.645 124.198 171.373C122.219 177.883 120.188 184.375 118.107 190.85C115.156 190.709 112.207 190.586 109.258 190.48C110.893 185.493 112.506 180.493 114.097 175.48C111.363 180.477 108.574 185.439 105.73 190.367C103.993 190.314 102.254 190.269 100.515 190.233L100.196 178.622C98.9016 182.47 97.5999 186.314 96.2904 190.156C93.3414 190.123 90.3918 190.101 87.4414 190.092Z" fill="url(#paint3_linear_691_46)"/>
<path d="M121.74 191.022C123.796 184.442 125.8 177.843 127.75 171.223C127.111 170.469 126.806 170.09 126.174 169.349C129.122 169.164 132.068 168.964 135.013 168.748C135.676 169.523 136.007 169.915 136.668 170.707C134.705 177.688 132.676 184.647 130.581 191.584C127.636 191.38 124.689 191.193 121.74 191.022Z" fill="url(#paint4_linear_691_46)"/>
<path d="M162.355 187.829C161.42 191.143 159.961 195.352 159.056 198.678C151.378 199.329 144.249 199.193 136.59 200.047C135.398 199.024 134.218 197.983 133.051 196.925C135.186 187.711 137.404 178.519 139.706 169.349C138.905 168.06 138.506 167.395 137.705 166.084C146.807 167.087 155.69 167.224 164.817 167.935C165.605 169.009 166.25 170.258 167.051 171.307C166.299 173.886 165.554 176.467 164.817 179.05C161.171 178.97 157.526 178.886 153.88 178.797C154.405 176.828 154.941 174.861 155.489 172.895L150.039 172.56C148.149 179.608 146.311 186.671 144.526 193.747L150.039 193.384C150.506 191.636 150.977 189.888 151.452 188.141C155.082 188.03 158.716 187.925 162.355 187.829Z" fill="url(#paint5_linear_691_46)"/>
<path d="M56.5459 210.663L58.6376 220.68H51.7103L49.5755 210.637H48.2528L45.712 220.68H38.2617L43.3926 198.71L42.0761 196.539H60.9939L62.3597 198.638L59.5666 210.663H56.5459ZM50.6152 200.547L49.1633 206.609H52.9777L54.3865 200.547H50.6152Z" fill="url(#paint6_linear_691_46)"/>
<path d="M58.6934 215.28L65.1528 198.211L64.1105 196.539H74.1511L75.2795 198.211L76.8 215.28H71.3637L70.8856 209.746H66.6637L64.5647 215.28H58.6934ZM67.8686 206.596H70.6035L70.0775 200.762L67.8686 206.596Z" fill="url(#paint7_linear_691_46)"/>
<path d="M77.4596 215.28L78.176 212.585L76.5888 198.247L75.5273 196.539H93.0494L94.14 198.114L93.2313 200.319H84.8672L83.3338 201.364L82.4436 204.339H89.7462L89.3852 205.915L87.5448 207.49H82.4436L84.1702 215.296L77.4596 215.28Z" fill="url(#paint8_linear_691_46)"/>
<path d="M96.1908 215.26L94.9362 212.585L97.5025 200.325H92.7036L93.5848 198.74L92.5664 196.539H108.717L109.713 198.114L109.153 200.325H103.422L99.8913 215.28L96.1908 215.26Z" fill="url(#paint9_linear_691_46)"/>
<path d="M128.327 205.207H120.783L121.841 200.499H118.097L116.647 206.502H126.155L127.489 208.615L124.686 220.522H108.778L106.404 218.148L107.763 212.504H115.239L114.309 216.49H118.109L119.504 210.533H111.287L108.778 208.134L110.993 198.626L109.635 196.539H128.449L129.832 198.653L128.327 205.207Z" fill="url(#paint10_linear_691_46)"/>
<path d="M81.3176 0.202853C89.8162 -0.512844 98.0775 0.728389 106.263 2.93308C121.722 7.16702 135.701 16.6588 145.489 29.3134C152.401 38.1321 157.213 48.4075 159.557 59.36C161.71 68.2656 161.967 77.4673 160.732 86.5282C158.177 81.7613 155.371 77.1216 152.753 72.3876C152.282 71.3563 152.392 70.0352 152.237 68.9215C151.264 57.8584 147.191 47.4007 141.05 38.1994C136.336 31.4136 130.472 25.5022 123.722 20.7318C117.156 16.2393 109.871 12.9001 102.179 10.8582C91.823 8.29786 81.0015 8.26612 70.6302 10.7657C62.8013 12.793 55.3855 16.1657 48.7145 20.7326C39.847 27.0411 32.2057 35.4117 27.28 45.1435C23.3615 52.6782 20.8358 60.8926 20.1594 69.3669C20.0391 70.3355 20.1144 71.4963 19.6833 72.3883C17.065 77.1201 14.2588 81.7598 11.7033 86.5289C10.453 77.3703 10.7411 68.0662 12.9461 59.0703C16.7593 41.2423 27.553 25.0589 42.3581 14.4416C53.7154 6.0761 67.3029 1.40405 81.3176 0.202853Z" fill="url(#paint11_linear_691_46)"/>
<path d="M25.4357 109.534C32.3308 124.929 45.2769 137.594 60.8759 144.06C71.3639 148.603 83.1926 150.084 94.505 148.603C104.557 147.419 114.374 143.391 122.794 137.847C133.122 130.747 141.558 120.981 146.662 109.505C148.233 112.312 149.441 115.35 150.894 118.223C151.042 118.668 151.553 119.287 151.324 119.744C140.992 138.132 122.554 151.845 101.854 156.162C93.3024 158.241 84.4233 158.609 75.729 157.243C69.217 156.166 62.7152 154.492 56.6445 151.865C42.5986 145.811 30.711 135.661 22.5393 122.745C21.9557 121.656 21.0487 120.611 20.6777 119.437C21.67 117.087 22.8551 114.807 23.9148 112.485C24.4234 111.514 24.7592 110.393 25.4357 109.534Z" fill="url(#paint12_linear_691_46)"/>
<path d="M91.0406 49.3461C87.978 49.2697 84.9109 49.341 81.8481 49.3157C80.9062 52.4725 79.9827 55.4204 78.9832 58.5593C78.7388 59.0704 78.7388 59.1981 78.3721 60.0925C79.1055 60.9869 78.9489 60.6887 79.7166 61.6257C80.3277 62.2645 80.3277 62.2645 81.0611 62.9033C81.0904 66.8475 81.188 70.6057 81.1396 74.5498C80.3509 75.7734 79.1204 76.7293 78.1502 77.8104C78.1209 84.1515 78.1671 90.4902 78.1279 96.8314L78.422 96.6997C80.2055 95.3557 80.0833 95.3557 81.1396 94.5891C81.6722 100.977 81.6722 100.85 83.1098 108.295C84.3017 112.516 85.3523 116.785 86.4541 121.03C87.5698 116.79 88.6112 112.518 89.8051 108.3C90.7171 102.638 90.5949 102.766 91.776 94.5891C92.6727 95.3557 92.795 95.3557 94.4501 96.6894L94.7773 96.8614C94.7654 90.5073 94.787 84.1588 94.7654 77.8075C93.7949 76.7254 92.5647 75.7732 91.776 74.5521C91.7271 70.6022 91.7467 66.6477 91.776 62.7007C93.4061 61.2424 93.6506 60.8591 94.3839 60.0925C94.2617 59.4537 94.1395 59.1981 94.0172 58.9426C93.8532 58.4316 93.9369 58.6871 93.895 58.5593C92.8681 55.4301 92.0498 52.4673 91.0406 49.3461Z" fill="url(#paint13_linear_691_46)"/>
<path d="M21.2347 77.7286L32.6358 70.4793L22.9589 89.2074L24.614 94.7667L6.1131 129.282L0.137269 122.84L21.2347 77.7286Z" fill="url(#paint14_linear_691_46)"/>
<path d="M151.808 77.7286L140.561 70.4793L150.107 89.2074L148.475 94.7666L166.726 129.282L172.621 122.84L151.808 77.7286Z" fill="url(#paint15_linear_691_46)"/>
<path d="M24.9805 89.8706L29.7137 80.6012L53.5773 67.3875V69.3597L60.0856 66.5986L55.5495 77.4457L49.8302 82.3762V86.5178L44.1108 88.2928L41.9414 95.5899L33.4609 107.62L29.911 102.098L24.9805 89.8706Z" fill="url(#paint16_linear_691_46)"/>
<path d="M147.855 89.8488L143.107 80.5881L119.165 67.3868V69.3571L112.635 66.5986L117.186 77.4356L122.924 82.3614V86.4992L128.663 88.2725L130.839 95.5628L139.347 107.582L142.909 102.065L147.855 89.8488Z" fill="url(#paint17_linear_691_46)"/>
<path d="M57.0706 57.637L41.4902 71.6396L55.4928 63.5536V65.723L62.1983 63.1591L61.8039 71.6396L67.1288 71.0479L68.1149 69.6674L67.1288 65.1313L70.2843 61.3841H73.6371L68.7066 66.9063L73.6371 87.2199H75.2148V77.5562L78.3703 74.4007V63.5536L75.8065 60.7925L79.7509 48.3676L78.3703 45.6066V39.4928L76.9898 37.7178L75.8065 54.6787L57.0706 57.637Z" fill="url(#paint18_linear_691_46)"/>
<path d="M115.82 57.6223L131.205 71.57L117.378 63.5157V65.6766L110.756 63.1228L111.146 71.57L105.888 70.9807L104.914 69.6055L105.888 65.0873L102.772 61.3548H99.4609L104.33 66.8553L99.4609 87.0892H97.9029V77.4634L94.7869 74.3202V63.5157L97.3186 60.7655L93.4236 48.3893L94.7869 45.6391V39.5493L96.1501 37.7812L97.3186 54.6756L115.82 57.6223Z" fill="url(#paint19_linear_691_46)"/>
<path d="M73.7829 52.6595L58.5969 55.0262L59.9775 44.5735L56.4275 47.3346L50.5109 45.9541L38.6777 53.2512L42.8193 44.5735L53.8637 34.9097L74.9662 33.1348L73.7829 52.6595Z" fill="url(#paint20_linear_691_46)"/>
<path d="M99.6883 52.7184L114.427 55.0722L113.087 44.6764L116.533 47.4224L122.275 46.0494L133.76 53.3068L129.74 44.6764L119.021 35.0651L98.5398 33.2998L99.6883 52.7184Z" fill="url(#paint21_linear_691_46)"/>
<path d="M75.2108 89.9707H74.0275L70.2803 100.974L64.561 110.046L63.7721 114.188L53.5166 118.329L55.0944 115.765L43.6557 122.865L41.0918 129.571L53.9111 131.74L53.5166 129.965H55.0944L57.6583 132.726L60.0249 133.121L75.408 118.921L77.4862 103.739L79.7469 105.221L78.7608 99.8963L75.8025 101.671L75.2108 89.9707Z" fill="url(#paint22_linear_691_46)"/>
<path d="M97.9306 90.292H99.1068L102.831 101.232L108.516 110.253L109.3 114.371L119.494 118.489L117.926 115.94L129.295 122.999L131.844 129.667L119.102 131.824L119.494 130.059H117.926L115.377 132.804L113.025 133.196L97.7346 119.077L95.669 103.981L93.4219 105.456L94.4021 100.161L97.3425 101.926L97.9306 90.292Z" fill="url(#paint23_linear_691_46)"/>
<defs>
<linearGradient id="paint0_linear_691_46" x1="21.5461" y1="165.703" x2="21.5461" y2="200.757" gradientUnits="userSpaceOnUse">
<stop stop-color="white"/>
<stop offset="1" stop-color="#C1CED6"/>
</linearGradient>
<linearGradient id="paint1_linear_691_46" x1="50.5887" y1="168.907" x2="50.5887" y2="191.811" gradientUnits="userSpaceOnUse">
<stop stop-color="white"/>
<stop offset="1" stop-color="#C1CED6"/>
</linearGradient>
<linearGradient id="paint2_linear_691_46" x1="76.0652" y1="170.228" x2="76.0652" y2="190.457" gradientUnits="userSpaceOnUse">
<stop stop-color="white"/>
<stop offset="1" stop-color="#C1CED6"/>
</linearGradient>
<linearGradient id="paint3_linear_691_46" x1="105.82" y1="169.56" x2="105.82" y2="190.85" gradientUnits="userSpaceOnUse">
<stop stop-color="white"/>
<stop offset="1" stop-color="#C1CED6"/>
</linearGradient>
<linearGradient id="paint4_linear_691_46" x1="129.204" y1="168.748" x2="129.204" y2="191.584" gradientUnits="userSpaceOnUse">
<stop stop-color="white"/>
<stop offset="1" stop-color="#C1CED6"/>
</linearGradient>
<linearGradient id="paint5_linear_691_46" x1="150.051" y1="166.084" x2="150.051" y2="200.047" gradientUnits="userSpaceOnUse">
<stop stop-color="white"/>
<stop offset="1" stop-color="#C1CED6"/>
</linearGradient>
<linearGradient id="paint6_linear_691_46" x1="50.3107" y1="196.539" x2="50.3107" y2="220.68" gradientUnits="userSpaceOnUse">
<stop stop-color="white"/>
<stop offset="1" stop-color="#C1CED6"/>
</linearGradient>
<linearGradient id="paint7_linear_691_46" x1="67.7467" y1="196.539" x2="67.7467" y2="215.28" gradientUnits="userSpaceOnUse">
<stop stop-color="white"/>
<stop offset="1" stop-color="#C1CED6"/>
</linearGradient>
<linearGradient id="paint8_linear_691_46" x1="84.8336" y1="196.539" x2="84.8336" y2="215.296" gradientUnits="userSpaceOnUse">
<stop stop-color="white"/>
<stop offset="1" stop-color="#C1CED6"/>
</linearGradient>
<linearGradient id="paint9_linear_691_46" x1="101.14" y1="196.539" x2="101.14" y2="215.28" gradientUnits="userSpaceOnUse">
<stop stop-color="white"/>
<stop offset="1" stop-color="#C1CED6"/>
</linearGradient>
<linearGradient id="paint10_linear_691_46" x1="118.118" y1="196.539" x2="118.118" y2="220.522" gradientUnits="userSpaceOnUse">
<stop stop-color="white"/>
<stop offset="1" stop-color="#C1CED6"/>
</linearGradient>
<linearGradient id="paint11_linear_691_46" x1="86.2186" y1="0" x2="86.2186" y2="86.5289" gradientUnits="userSpaceOnUse">
<stop stop-color="white"/>
<stop offset="1" stop-color="#C1CED6"/>
</linearGradient>
<linearGradient id="paint12_linear_691_46" x1="86.03" y1="109.505" x2="86.03" y2="158.051" gradientUnits="userSpaceOnUse">
<stop stop-color="white"/>
<stop offset="1" stop-color="#C1CED6"/>
</linearGradient>
<linearGradient id="paint13_linear_691_46" x1="86.4526" y1="49.3096" x2="86.4526" y2="121.03" gradientUnits="userSpaceOnUse">
<stop stop-color="white"/>
<stop offset="1" stop-color="#D0EBFC"/>
</linearGradient>
<linearGradient id="paint14_linear_691_46" x1="16.9605" y1="70.14" x2="15.676" y2="129.489" gradientUnits="userSpaceOnUse">
<stop stop-color="#1A8CDE"/>
<stop offset="1" stop-color="#075C9A"/>
</linearGradient>
<linearGradient id="paint15_linear_691_46" x1="156.025" y1="70.14" x2="157.327" y2="129.489" gradientUnits="userSpaceOnUse">
<stop stop-color="#1A8CDE"/>
<stop offset="1" stop-color="#075C9A"/>
</linearGradient>
<linearGradient id="paint16_linear_691_46" x1="42.533" y1="66.5986" x2="42.533" y2="107.62" gradientUnits="userSpaceOnUse">
<stop stop-color="#1A8CDE"/>
<stop offset="1" stop-color="#075C9A"/>
</linearGradient>
<linearGradient id="paint17_linear_691_46" x1="130.245" y1="66.5986" x2="130.245" y2="107.582" gradientUnits="userSpaceOnUse">
<stop stop-color="#1A8CDE"/>
<stop offset="1" stop-color="#075C9A"/>
</linearGradient>
<linearGradient id="paint18_linear_691_46" x1="60.6206" y1="37.7178" x2="60.6206" y2="87.2199" gradientUnits="userSpaceOnUse">
<stop stop-color="#1A8CDE"/>
<stop offset="1" stop-color="#075C9A"/>
</linearGradient>
<linearGradient id="paint19_linear_691_46" x1="112.314" y1="37.7812" x2="112.314" y2="87.0892" gradientUnits="userSpaceOnUse">
<stop stop-color="#1A8CDE"/>
<stop offset="1" stop-color="#075C9A"/>
</linearGradient>
<linearGradient id="paint20_linear_691_46" x1="56.822" y1="33.1348" x2="56.822" y2="55.0262" gradientUnits="userSpaceOnUse">
<stop stop-color="#1A8CDE"/>
<stop offset="1" stop-color="#075C9A"/>
</linearGradient>
<linearGradient id="paint21_linear_691_46" x1="116.15" y1="33.2998" x2="116.15" y2="55.0722" gradientUnits="userSpaceOnUse">
<stop stop-color="#1A8CDE"/>
<stop offset="1" stop-color="#075C9A"/>
</linearGradient>
<linearGradient id="paint22_linear_691_46" x1="60.4193" y1="89.9707" x2="60.4193" y2="133.121" gradientUnits="userSpaceOnUse">
<stop stop-color="#1A8CDE"/>
<stop offset="1" stop-color="#075C9A"/>
</linearGradient>
<linearGradient id="paint23_linear_691_46" x1="112.633" y1="90.292" x2="112.633" y2="133.196" gradientUnits="userSpaceOnUse">
<stop stop-color="#1A8CDE"/>
<stop offset="1" stop-color="#075C9A"/>
</linearGradient>
</defs>
</svg>
