<svg width="500" height="500" viewBox="0 0 500 500" fill="none" xmlns="http://www.w3.org/2000/svg">
<circle cx="250" cy="250" r="250" fill="url(#paint0_linear_649_90)"/>
<path d="M238.388 64.4774C258.391 62.793 277.835 65.7144 297.1 70.9033C333.485 80.8684 366.385 103.208 389.422 132.993C405.693 153.749 417.016 177.933 422.534 203.711C427.601 224.671 428.207 246.329 425.3 267.654C419.286 256.435 412.683 245.515 406.519 234.373C405.411 231.946 405.67 228.836 405.305 226.215C403.016 200.177 393.429 175.563 378.975 153.907C367.881 137.936 354.079 124.023 338.191 112.795C322.739 102.221 305.591 94.3619 287.489 89.5562C263.114 83.53 237.644 83.4553 213.234 89.3384C194.808 94.11 177.354 102.048 161.653 112.797C140.782 127.644 122.798 147.346 111.204 170.251C101.982 187.984 96.0373 207.318 94.4451 227.263C94.162 229.543 94.3391 232.275 93.3245 234.375C87.1621 245.511 80.5574 256.432 74.5427 267.656C71.5999 246.1 72.2781 224.202 77.4677 203.029C86.4426 161.069 111.847 122.979 146.692 97.9901C173.423 78.3008 205.403 67.3046 238.388 64.4774Z" fill="white"/>
<path d="M106.863 321.804C123.091 358.038 153.561 387.846 190.275 403.065C214.96 413.756 242.8 417.243 269.425 413.756C293.084 410.97 316.189 401.489 336.007 388.442C360.316 371.731 380.17 348.745 392.183 321.735C395.88 328.343 398.725 335.492 402.144 342.255C402.491 343.302 403.694 344.758 403.157 345.835C378.838 389.113 335.442 421.388 286.722 431.547C266.595 436.442 245.697 437.307 225.234 434.091C209.907 431.558 194.604 427.618 180.316 421.435C147.257 407.187 119.279 383.297 100.046 352.896C98.6718 350.335 96.5372 347.874 95.6641 345.11C97.9994 339.581 100.789 334.214 103.283 328.749C104.48 326.464 105.27 323.825 106.863 321.804Z" fill="white"/>
<path d="M261.268 180.138C254.059 179.958 246.841 180.126 239.632 180.066C237.415 187.496 235.242 194.434 232.889 201.822C232.314 203.025 232.314 203.326 231.451 205.431C233.177 207.536 232.808 206.834 234.615 209.039C236.054 210.543 236.054 210.543 237.78 212.046C237.849 221.329 238.078 230.175 237.965 239.458C236.108 242.337 233.212 244.587 230.929 247.132C230.86 262.057 230.968 276.975 230.876 291.9L231.568 291.59C235.766 288.427 235.478 288.427 237.965 286.623C239.218 301.658 239.218 301.357 242.602 318.882C245.407 328.816 247.879 338.863 250.473 348.855C253.099 338.874 255.55 328.821 258.36 318.892C260.506 305.567 260.219 305.868 262.999 286.623C265.109 288.427 265.397 288.427 269.292 291.566L270.062 291.971C270.034 277.015 270.085 262.074 270.034 247.125C267.75 244.578 264.855 242.337 262.999 239.463C262.884 230.167 262.93 220.859 262.999 211.569C266.835 208.137 267.41 207.235 269.137 205.431C268.849 203.927 268.561 203.326 268.274 202.724C267.887 201.521 268.085 202.123 267.986 201.822C265.569 194.457 263.643 187.484 261.268 180.138Z" fill="white"/>
<path d="M96.9771 246.94L123.811 229.878L101.035 273.957L104.931 287.041L61.3866 368.278L47.3217 353.117L96.9771 246.94Z" fill="white"/>
<path d="M404.29 246.94L377.819 229.878L400.287 273.957L396.444 287.041L439.4 368.278L453.275 353.117L404.29 246.94Z" fill="white"/>
<path d="M105.78 275.521L116.921 253.705L173.086 222.605V227.247L188.404 220.748L177.728 246.278L164.267 257.882V267.63L150.806 271.808L145.7 288.983L125.74 317.298L117.385 304.301L105.78 275.521Z" fill="white"/>
<path d="M394.984 275.47L383.808 253.674L327.458 222.603V227.24L312.09 220.748L322.801 246.254L336.306 257.848V267.586L349.812 271.76L354.934 288.919L374.959 317.207L383.342 304.222L394.984 275.47Z" fill="white"/>
<path d="M181.309 199.655L144.639 232.612L177.595 213.581V218.687L193.378 212.652L192.449 232.612L204.982 231.219L207.303 227.97L204.982 217.294L212.409 208.475H220.3L208.696 221.472L220.3 269.282H224.014V246.537L231.44 239.11V213.581L225.406 207.082L234.69 177.839L231.44 171.34V156.951L228.191 152.773L225.406 192.692L181.309 199.655Z" fill="white"/>
<path d="M319.587 199.622L355.798 232.449L323.254 213.492V218.578L307.669 212.568L308.586 232.449L296.21 231.062L293.918 227.826L296.21 217.191L288.876 208.406H281.084L292.543 221.353L281.084 268.976H277.417V246.32L270.083 238.922V213.492L276.042 207.019L266.875 177.891L270.083 171.418V157.085L273.292 152.923L276.042 192.686L319.587 199.622Z" fill="white"/>
<path d="M220.649 187.937L184.907 193.507L188.156 168.905L179.801 175.404L165.875 172.155L138.024 189.329L147.772 168.905L173.766 146.161L223.434 141.983L220.649 187.937Z" fill="white"/>
<path d="M281.634 188.076L316.323 193.615L313.17 169.148L321.279 175.611L334.794 172.379L361.825 189.461L352.364 169.148L327.136 146.526L278.931 142.372L281.634 188.076Z" fill="white"/>
<path d="M224.012 275.758H221.227L212.408 301.655L198.946 323.008L197.09 332.755L172.952 342.503L176.666 336.469L149.743 353.179L143.709 368.961L173.881 374.067L172.952 369.89H176.666L182.7 376.388L188.27 377.317L224.476 343.896L229.368 308.162L234.688 311.652L232.367 299.119L225.405 303.297L224.012 275.758Z" fill="white"/>
<path d="M277.486 276.512H280.254L289.021 302.261L302.401 323.492L304.246 333.185L328.238 342.877L324.547 336.877L351.307 353.492L357.305 369.185L327.315 374.261L328.238 370.108H324.547L318.549 376.569L313.012 377.492L277.025 344.261L272.163 308.732L266.874 312.201L269.181 299.74L276.102 303.894L277.486 276.512Z" fill="white"/>
<defs>
<linearGradient id="paint0_linear_649_90" x1="179.411" y1="474.162" x2="358.421" y2="110.699" gradientUnits="userSpaceOnUse">
<stop stop-color="#122337"/>
<stop offset="1" stop-color="#2B4A85"/>
</linearGradient>
</defs>
</svg>
