<svg width="227" height="253" viewBox="0 0 227 253" fill="none" xmlns="http://www.w3.org/2000/svg">
<mask id="mask0_704_2" style="mask-type:alpha" maskUnits="userSpaceOnUse" x="0" y="0" width="227" height="253">
<path d="M100.419 12.2601L20.9905 59.177C13.5594 63.5664 9 71.555 9 80.1857V170.129C9 178.506 13.2975 186.298 20.3831 190.767L99.8172 240.868C107.706 245.844 117.741 245.887 125.672 240.98L206.871 190.741C214.059 186.294 218.433 178.443 218.433 169.991V80.3216C218.433 71.6179 213.797 63.5732 206.266 59.2096L125.061 12.1568C117.432 7.73609 108.011 7.77556 100.419 12.2601Z" fill="#2D374B" stroke="#96BEDC" stroke-width="16.2667"/>
</mask>
<g mask="url(#mask0_704_2)">
<path d="M100.419 12.2601L20.9905 59.177C13.5594 63.5664 9 71.555 9 80.1857V170.129C9 178.506 13.2975 186.298 20.3831 190.767L99.8172 240.868C107.706 245.844 117.741 245.887 125.672 240.98L206.871 190.741C214.059 186.294 218.433 178.443 218.433 169.991V80.3216C218.433 71.6179 213.797 63.5732 206.266 59.2096L125.061 12.1568C117.432 7.73609 108.011 7.77556 100.419 12.2601Z" fill="#2D374B" stroke="#96BEDC" stroke-width="16.2667"/>
<path d="M118.15 85.0168C114.369 84.9224 110.582 85.0105 106.801 84.9793C105.638 88.8767 104.498 92.5162 103.264 96.3917C102.962 97.0226 102.962 97.1804 102.509 98.2846C103.415 99.3888 103.221 99.0207 104.169 100.177C104.924 100.966 104.924 100.966 105.829 101.755C105.865 106.625 105.986 111.264 105.926 116.134C104.952 117.645 103.433 118.825 102.235 120.16C102.199 127.989 102.256 135.814 102.208 143.643L102.571 143.481C104.773 141.821 104.622 141.821 105.926 140.875C106.584 148.762 106.584 148.604 108.359 157.797C109.83 163.008 111.127 168.278 112.488 173.52C113.865 168.285 115.151 163.011 116.625 157.803C117.751 150.813 117.6 150.971 119.058 140.875C120.165 141.821 120.316 141.821 122.36 143.468L122.764 143.681C122.749 135.835 122.776 127.998 122.749 120.156C121.551 118.82 120.032 117.644 119.058 116.137C118.998 111.26 119.022 106.378 119.058 101.505C121.071 99.7043 121.373 99.231 122.278 98.2846C122.127 97.4959 121.976 97.1804 121.825 96.8649C121.623 96.2339 121.726 96.5494 121.674 96.3917C120.406 92.5283 119.396 88.8703 118.15 85.0168Z" fill="white"/>
<path d="M36.0404 120.06L46.0452 111.11L34.0979 134.232L36.1413 141.096L17.2984 166.317L17.2984 151.951L36.0404 120.06Z" fill="#28A0F0"/>
<path d="M17.3172 148.17L33.2579 121.042L24.4999 126.622L17.3172 135.695L17.3172 148.17Z" fill="white"/>
<path d="M191.278 123.593L181.386 114.743L193.199 137.605L191.178 144.392L210.116 169.329L210.116 155.124L191.278 123.593Z" fill="#28A0F0"/>
<path d="M210.117 151.387L194.029 124.563L202.689 130.081L210.117 139.052L210.117 151.387Z" fill="white"/>
<path d="M36.5869 135.052L42.4307 123.607L71.8934 107.293V109.728L79.9287 106.319L74.3283 119.711L67.267 125.799V130.912L60.2057 133.104L57.5273 142.113L47.0571 156.966L42.6742 150.148L36.5869 135.052Z" fill="#28A0F0"/>
<path d="M188.294 135.025L182.431 123.591L152.872 107.292V109.725L144.81 106.319L150.429 119.699L157.513 125.781V130.889L164.598 133.078L167.285 142.079L177.789 156.918L182.187 150.107L188.294 135.025Z" fill="#28A0F0"/>
<path d="M76.2057 95.2549L56.9697 112.543L74.2577 102.56V105.238L82.5365 102.073L82.0495 112.543L88.6238 111.812L89.8413 110.108L88.6238 104.508L92.5197 99.8813H96.6591L90.5718 106.699L96.6591 131.779H98.607V119.848L102.503 115.952V102.56L99.3375 99.1508L104.207 83.8107L102.503 80.4018V72.8535L100.798 70.6621L99.3375 91.6025L76.2057 95.2549Z" fill="#28A0F0"/>
<path d="M148.742 95.237L167.737 112.457L150.666 102.513V105.181L142.491 102.028L142.972 112.457L136.48 111.73L135.277 110.032L136.48 104.453L132.633 99.8453H128.545L134.556 106.636L128.545 131.618H126.621V119.733L122.774 115.853V102.513L125.9 99.1177L121.091 83.8378L122.774 80.4422V72.9236L124.457 70.7407L125.9 91.599L148.742 95.237Z" fill="#28A0F0"/>
<path d="M96.8427 89.1078L78.0938 92.0297L79.7982 79.1246L75.4154 82.5335L68.1106 80.829L53.501 89.8382L58.6143 79.1246L72.2499 67.1934L98.3037 65.002L96.8427 89.1078Z" fill="#28A0F0"/>
<path d="M128.834 89.1818L147.031 92.0878L145.376 79.2528L149.63 82.6432L156.72 80.948L170.899 89.9083L165.937 79.2528L152.702 67.3866L127.416 65.207L128.834 89.1818Z" fill="#28A0F0"/>
<path d="M98.6077 135.176H97.1467L92.5204 148.76L85.4591 159.961L84.4851 165.075L71.8235 170.188L73.7714 167.022L59.6488 175.788L56.4834 184.067L72.3104 186.745L71.8235 184.554H73.7714L76.9368 187.963L79.8587 188.45L98.8512 170.918L101.417 152.174L104.208 154.005L102.991 147.43L99.3382 149.622L98.6077 135.176Z" fill="#28A0F0"/>
<path d="M126.657 135.572H128.109L132.708 149.079L139.727 160.216L140.695 165.3L153.28 170.385L151.344 167.237L165.381 175.953L168.527 184.185L152.796 186.848L153.28 184.669H151.344L148.197 188.058L145.293 188.543L126.415 171.111L123.865 152.473L121.091 154.293L122.301 147.757L125.931 149.935L126.657 135.572Z" fill="#28A0F0"/>
</g>
</svg>
