<svg width="1024" height="1024" viewBox="0 0 1024 1024" fill="none" xmlns="http://www.w3.org/2000/svg">
<path d="M543.397 177C534.983 177 525.795 181.271 516.089 189.691C511.492 193.68 507.508 197.948 504.518 201.372C504.523 201.377 504.528 201.382 504.533 201.39C504.541 201.38 504.546 201.375 504.546 201.375C504.546 201.375 509.263 206.459 514.454 211.901C517.248 208.614 521.285 204.128 525.926 200.103C534.554 192.615 540.189 191.046 543.397 191.046C555.499 191.046 565.344 200.548 565.344 212.227C565.344 223.841 555.494 233.336 543.381 233.408C542.829 233.408 542.12 233.341 541.246 233.149C544.775 234.662 548.569 235.749 552.182 235.749C574.364 235.749 578.7 221.419 578.995 220.404C579.652 217.777 580 215.042 580 212.229C579.997 192.802 563.578 177 543.397 177Z" fill="url(#paint0_linear_1063_129)"/>
<path d="M465.896 247.453C474.31 247.453 483.498 243.182 493.204 234.761C497.8 230.773 501.785 226.504 504.775 223.08C504.77 223.075 504.765 223.07 504.759 223.062C504.752 223.073 504.746 223.078 504.746 223.078C504.746 223.078 500.029 217.994 494.839 212.552C492.045 215.839 488.008 220.325 483.367 224.35C474.739 231.837 469.103 233.407 465.896 233.407C453.794 233.407 443.949 223.904 443.949 212.226C443.949 200.612 453.799 191.117 465.912 191.045C466.464 191.045 467.173 191.112 468.046 191.304C464.517 189.791 460.724 188.703 457.111 188.703C434.928 188.703 430.593 203.034 430.298 204.049C429.641 206.675 429.293 209.41 429.293 212.223C429.296 231.651 445.715 247.453 465.896 247.453Z" fill="url(#paint1_linear_1063_129)"/>
<path d="M552.132 235.392C540.776 235.115 528.971 226.249 526.562 224.045C520.341 218.35 505.983 202.929 504.855 201.719C494.331 190.054 480.07 177 465.898 177H465.88H465.861C448.634 177.085 434.156 188.634 430.305 204.05C430.6 203.035 436.259 188.432 457.1 188.94C468.456 189.217 480.318 198.202 482.725 200.406C488.946 206.101 503.309 221.525 504.432 222.735C514.957 234.397 529.217 247.449 543.389 247.449H543.408H543.426C560.653 247.363 575.131 235.814 578.982 220.398C578.689 221.414 572.973 235.9 552.132 235.392Z" fill="#29ABE2"/>
<path d="M0 583.662C22.1954 558.692 22.1954 558.692 27.7425 552.383C51.9364 467.001 76.726 381.847 102.111 296.921C93.3239 285.216 88.696 279.332 79.7331 267.378C181.547 274.538 283.429 280.069 385.379 283.971C394.489 294.182 399.058 299.256 408.167 309.343C382.431 386.735 357.046 464.292 332.012 542.016C314.848 552.445 306.237 557.582 289.072 568.478C215.046 572.13 74.0464 578.349 0 583.662ZM217.721 325.064C196.788 391.477 176.284 458.066 156.211 524.832C176.753 524.002 197.256 523.192 217.721 522.404C237.658 457.215 257.966 392.151 278.645 327.212C258.317 326.527 238.009 325.811 217.721 325.064Z" fill="url(#paint2_linear_1063_129)"/>
<path d="M1.19013 583.076C22.5696 559.024 22.6387 558.945 28.118 552.713L28.1927 552.628L28.2235 552.519C52.4168 467.139 77.2057 381.988 102.59 297.065L102.662 296.823L102.511 296.621C98.225 290.912 94.9282 286.587 91.6364 282.269L91.3856 281.94C88.1769 277.731 84.9492 273.494 80.7899 267.953C182.175 275.072 283.628 280.575 385.148 284.462C394.099 294.496 398.668 299.57 407.601 309.462C381.915 386.704 356.579 464.112 331.593 541.686C329.019 543.25 326.637 544.695 324.389 546.058C311.775 553.711 303.381 558.804 288.916 567.985C273.131 568.763 254.309 569.659 233.745 570.637C158.368 574.221 59.5888 578.919 1.19013 583.076ZM217.739 324.564L217.358 324.55L217.244 324.914C196.31 391.329 175.806 457.92 155.732 524.688L155.53 525.36L156.231 525.331C176.773 524.501 197.276 523.692 217.74 522.903L218.095 522.89L218.199 522.55C238.135 457.363 258.443 392.301 279.121 327.364L279.322 326.734L278.662 326.712C258.335 326.027 238.027 325.311 217.739 324.564Z" stroke="#979797" stroke-opacity="0.28"/>
<path d="M326.127 620.12L430.435 307.103L406.96 280.747L603.053 276.291L575.199 301.916L682.854 620.12L591.27 549.879L541.779 471.17H464.901L415.573 549.879L326.127 620.12ZM484.487 426.359H524.149L505.756 342.874L484.487 426.359Z" fill="url(#paint3_linear_1063_129)"/>
<path d="M327.128 618.698L430.909 307.262L431 306.987L430.808 306.771L408.053 281.222L601.739 276.821L574.861 301.548L574.621 301.768L574.725 302.077L681.853 618.722L591.646 549.537L542.202 470.904L542.055 470.67H541.779H464.901H464.625L464.478 470.905L415.196 549.54L327.128 618.698ZM484.003 426.236L483.844 426.859H484.487H524.149H524.771L524.637 426.252L506.244 342.767L505.271 342.751L484.003 426.236Z" stroke="#979797" stroke-opacity="0.28"/>
<path fill-rule="evenodd" clip-rule="evenodd" d="M625.26 278.869L597.779 304.724L680.223 546.04L726.025 571.895L988.623 586.259L1019.16 557.531L936.714 293.233L884.805 267.378L625.26 278.869ZM872.846 534.993C850.621 465.86 827.92 396.91 804.744 328.142C782.281 328.915 759.796 329.657 737.29 330.366C760.185 397.608 782.67 464.979 804.744 532.479C827.401 533.296 850.102 534.134 872.846 534.993Z" fill="url(#paint4_linear_1063_129)" stroke="#979797" stroke-opacity="0.28"/>
<defs>
<linearGradient id="paint0_linear_1063_129" x1="524.344" y1="181.645" x2="573.589" y2="233.155" gradientUnits="userSpaceOnUse">
<stop offset="0.21" stop-color="#F15A24"/>
<stop offset="0.6841" stop-color="#FBB03B"/>
</linearGradient>
<linearGradient id="paint1_linear_1063_129" x1="484.949" y1="242.808" x2="435.703" y2="191.298" gradientUnits="userSpaceOnUse">
<stop offset="0.21" stop-color="#ED1E79"/>
<stop offset="0.8929" stop-color="#522785"/>
</linearGradient>
<linearGradient id="paint2_linear_1063_129" x1="204.084" y1="267.378" x2="204.084" y2="583.662" gradientUnits="userSpaceOnUse">
<stop stop-color="#EEF4F7"/>
<stop offset="1" stop-color="#99C0D8"/>
</linearGradient>
<linearGradient id="paint3_linear_1063_129" x1="504.49" y1="276.291" x2="504.49" y2="620.12" gradientUnits="userSpaceOnUse">
<stop stop-color="#EEF4F7"/>
<stop offset="1" stop-color="#99C0D8"/>
</linearGradient>
<linearGradient id="paint4_linear_1063_129" x1="808.468" y1="267.378" x2="808.468" y2="586.259" gradientUnits="userSpaceOnUse">
<stop stop-color="#EEF4F7"/>
<stop offset="1" stop-color="#99C0D8"/>
</linearGradient>
</defs>
</svg>
