<svg width="42" height="43" viewBox="0 0 42 43" fill="none" xmlns="http://www.w3.org/2000/svg">
<path d="M25.2688 41.9803C25.2688 41.9803 23.8205 42.2789 21.5424 42.2789C19.2642 42.2789 17.1781 41.9803 17.1781 41.9803C15.5632 41.4602 16.1186 41.6356 15.5875 41.4602C8.15093 38.3495 8.29079 38.3494 3.93392 32.4305C1.01885 28.4702 1.08482 28.2683 0.539199 26.3153C-0.29397 21.438 -0.0556902 21.1833 0.539199 15.8725C1.08476 13.8045 1.6302 12.7949 3.15754 10.5697L3.34384 11.6354C3.49306 12.2388 3.57679 12.7607 3.5397 13.3512C3.15752 15.8725 3.06902 18.6147 3.15754 21.1833C3.35565 26.9136 6.05891 31.3785 10.5928 34.676C13.9683 37.1311 17.691 38.3531 21.8151 38.2818C27.2232 38.1881 31.4002 35.0783 34.4116 30.9246C40.4224 22.6326 37.7233 11.2769 28.8916 6.28073C25.1292 4.15229 21.0267 3.78265 17.1125 4.84171C12.2338 6.1621 9.46991 10.0167 8.79464 15.0937C7.67088 23.5464 13.8581 31.406 23.3768 28.9449C27.0414 27.9975 29.2154 24.1335 28.6615 19.9067C28.2231 16.5593 25.2003 13.8738 21.6908 13.7131C19.3505 13.6056 18.919 13.9907 18.9021 16.3582C18.8802 19.5474 18.9131 22.7375 18.8912 25.9267C18.8861 26.6892 18.7571 27.4517 18.6889 28.1798C15.3698 28.2907 13.3729 26.4863 13.3401 23.5653C13.3249 22.2604 13.3797 20.9537 13.324 19.6514C13.217 17.1241 13.0459 14.5994 12.9219 12.0721C12.8739 11.0929 13.0197 10.1895 14.0086 9.67111C17.32 7.93466 20.8113 6.87645 24.492 7.89254C31.0424 9.7012 35.3988 16.5679 34.248 23.1974C32.9312 30.7853 25.9609 35.8743 18.5666 34.2531C13.033 33.0401 8.67675 30.0847 6.10802 24.6906C4.69509 21.7231 4.11854 18.6482 4.39506 15.4143C4.99024 8.44012 9.73171 1.8502 16.9253 0.453304C22.835 -0.694301 28.523 0.281378 33.5357 4.01905C37.6767 7.10683 40.1219 11.3104 41.4135 16.3006C43.5936 24.7206 39.496 34.3966 32.4415 38.7051C29.0433 40.7689 29.0785 40.7689 25.2688 41.9803Z" fill="white"/>
</svg>
