<svg width="892" height="318" viewBox="0 0 892 318" fill="none" xmlns="http://www.w3.org/2000/svg">
<g filter="url(#filter0_diii_432_867)">
<path d="M130.081 67.9061C132.776 57.8327 135.526 47.7638 138.33 37.6993L138.885 35.7079L136.821 35.5812L107.014 33.7499L105.65 33.6661L105.296 34.986C94.956 73.5416 84.9032 112.174 75.1377 150.882L74.5754 153.111L76.8691 152.96L107.021 150.976L108.217 150.897L108.527 149.739C110.976 140.577 113.442 131.419 115.925 122.267C134.606 121.694 153.307 121.157 172.03 120.656C169.711 128.64 166.889 137.154 164.044 145.738C163.895 146.188 163.745 146.639 163.596 147.09C160.479 156.498 157.365 165.959 154.92 174.785C138.651 176.15 122.777 177.164 106.983 178.172C82.8115 179.716 58.826 181.248 33.8929 184.006C27.8207 178.786 21.8068 173.481 15.8512 168.093C27.4586 118.034 39.5148 68.0899 52.0199 18.2617L52.1924 17.5743L51.8184 16.9722C48.5826 11.7628 46.5497 8.42522 43.9367 4.1354C43.5266 3.46196 43.1021 2.76506 42.6564 2.03377C91.0704 7.33188 139.552 11.8747 188.102 15.6625C191.273 19.977 193.356 22.6984 196.153 26.3526C196.765 27.1517 197.411 27.9955 198.109 28.9103C194.194 42.3312 190.317 55.7659 186.479 69.2144C167.68 68.8009 148.88 68.3648 130.081 67.9061Z" fill="url(#paint0_linear_432_867)" stroke="url(#paint1_linear_432_867)" stroke-width="3.34483"/>
<path d="M217.774 28.8635L218.015 28.0552L217.509 27.3805C215.852 25.1733 214.577 23.501 213.307 21.835L213.209 21.7071C212.522 20.8051 211.833 19.9008 211.081 18.9093C248.928 21.5332 286.799 23.5739 324.694 25.0315C327.689 28.3873 329.423 30.3141 332.366 33.5746C322.605 62.9367 312.975 92.3608 303.476 121.847C302.662 122.341 301.898 122.805 301.169 123.247C296.397 126.142 293.179 128.094 287.786 131.514C259.563 132.91 231.337 134.618 203.107 136.639C197.837 132.738 194.895 130.498 189.829 126.641C189.686 126.533 189.542 126.423 189.396 126.312C198.631 93.7431 208.09 61.2603 217.774 28.8635ZM260.84 37.5718L259.566 37.5249L259.183 38.7403C251.104 64.3724 243.191 90.0725 235.443 115.841L234.768 118.088L237.113 117.993C245.038 117.673 252.948 117.361 260.843 117.057L262.03 117.011L262.378 115.874C270.068 90.7281 277.902 65.6297 285.879 40.5793L286.549 38.4748L284.342 38.4004C276.5 38.1362 268.666 37.86 260.84 37.5718Z" fill="url(#paint2_linear_432_867)" stroke="url(#paint3_linear_432_867)" stroke-width="3.34483"/>
<path d="M458.762 61.4418C444.156 61.4408 429.55 61.4227 414.944 61.3875C416.922 55.333 418.902 49.2754 420.886 43.2146L421.599 41.036L419.307 41.022C411.467 40.9739 403.63 40.9058 395.797 40.8178L394.592 40.8042L394.198 41.9434C391.184 50.6556 388.17 59.3598 385.157 68.056L384.39 70.2684L386.732 70.276C406.337 70.3393 425.94 70.3752 445.538 70.3838C447.571 72.552 448.962 74.0882 450.606 75.9039C451.251 76.616 451.935 77.3711 452.712 78.2242C447.092 94.6744 441.472 111.132 435.853 127.597C403.145 127.789 370.455 128.409 337.783 129.459C332.472 125.849 329.533 123.831 324.4 120.276C326.964 112.513 329.54 104.751 332.129 96.988C346.585 96.8194 361.038 96.6816 375.488 96.5746L370.412 111.909L369.674 114.137L372.022 114.107L395.834 113.794L397.019 113.779L397.397 112.656C400.312 104.009 403.239 95.3619 406.177 86.7147L406.928 84.5043H404.593C387.568 84.5043 370.543 84.5631 353.518 84.6809C347.864 80.8762 344.744 78.7715 339.271 75.0191C343.731 61.3414 348.227 47.6751 352.758 34.0201L353.063 33.1012L352.418 32.3792L352.146 32.0749C349.877 29.5339 348.36 27.8361 346.499 25.7441C384.328 26.8598 422.161 27.4021 459.998 27.3708L467.427 35.215L458.762 61.4418Z" fill="url(#paint4_linear_432_867)" stroke="url(#paint5_linear_432_867)" stroke-width="3.34483"/>
<path d="M458.476 127.58C468.881 96.8018 479.264 66.0158 489.625 35.2222L489.945 34.2725L489.258 33.5428L483.342 27.255C501.673 27.0673 520.001 26.7533 538.325 26.313C538.596 26.6017 538.856 26.8791 539.108 27.1474C541.631 29.8371 543.287 31.6028 546.011 34.5347L547.419 90.2371L547.571 96.2301L550.544 91.0242C563.095 69.0433 575.463 46.9412 587.647 24.7181C605.631 23.9844 623.608 23.1304 641.577 22.1561C644.066 24.9155 645.66 26.6931 647.879 29.1682C648.248 29.5794 648.634 30.0099 649.044 30.4673C638.77 64.2455 628.235 97.9317 617.441 131.526C602.968 130.841 588.499 130.235 574.032 129.708C582.462 103.978 590.78 78.1827 598.988 52.3234L595.927 51.0145C581.605 77.1847 566.999 103.179 552.109 128.996C543.76 128.745 535.409 128.53 527.054 128.351L525.402 68.4197L522.145 67.9326C515.419 87.9357 508.652 107.923 501.845 127.895C487.392 127.736 472.935 127.63 458.476 127.58Z" fill="url(#paint6_linear_432_867)" stroke="url(#paint7_linear_432_867)" stroke-width="3.34483"/>
<path d="M640.137 132.61C650.81 98.4123 661.216 64.115 671.354 29.7175L671.609 28.8518L671.025 28.1633C669.469 26.3274 668.267 24.8876 667.09 23.4783C666.352 22.5939 665.624 21.7216 664.824 20.7711C679.059 19.8698 693.288 18.8987 707.51 17.8577C710.478 21.3301 712.197 23.3674 715.153 26.9022C704.953 63.1748 694.412 99.3319 683.531 135.373C669.076 134.377 654.611 133.455 640.137 132.61Z" fill="url(#paint8_linear_432_867)" stroke="url(#paint9_linear_432_867)" stroke-width="3.34483"/>
<path d="M810.345 67.7613C812.95 58.0229 815.609 48.2887 818.319 38.5588L818.874 36.5674L816.811 36.4407L787.931 34.6664L786.567 34.5826L786.213 35.9025C776.195 73.2587 766.455 110.689 756.993 148.193L756.431 150.422L758.724 150.271L787.938 148.349L789.135 148.27L789.444 147.112C791.813 138.247 794.199 129.387 796.602 120.532C814.665 119.978 832.749 119.459 850.853 118.975C848.654 126.605 845.99 135.03 843.299 143.543C843.097 144.182 842.895 144.822 842.693 145.461C839.676 155.008 836.667 164.596 834.303 173.164C816.801 174.616 799.829 175.31 782.89 176.002C780.585 176.096 778.281 176.19 775.976 176.286C756.603 177.094 737.195 178.034 717.099 180.245C711.23 175.199 705.416 170.072 699.659 164.863C710.903 116.372 722.582 67.9923 734.695 19.7247L734.868 19.0373L734.494 18.4352C731.359 13.388 729.389 10.1545 726.858 5.99817C726.476 5.37152 726.082 4.7239 725.668 4.04592C753.663 7.01121 781.358 8.49536 809.111 9.98267C827.756 10.9818 846.428 11.9825 865.235 13.4345C866.997 15.8977 868.637 18.5295 870.308 21.2135C870.409 21.3742 870.509 21.5352 870.609 21.6964C872.363 24.5102 874.16 27.3703 876.134 30.0326C872.345 43.0172 868.595 56.0151 864.881 69.0264C846.703 68.6265 828.524 68.2048 810.345 67.7613Z" fill="url(#paint10_linear_432_867)" stroke="url(#paint11_linear_432_867)" stroke-width="3.34483"/>
<path d="M262.59 232.228H260.532L260.953 234.242L272.455 289.327H236.381L224.494 233.404L224.212 232.079H222.858H215.319H214.017L213.697 233.341L199.534 289.327H160.477L189.244 166.149L189.399 165.485L189.045 164.902L183.081 155.067H287.036L293.938 165.674L278.479 232.228H262.59ZM228.785 174.57H227.465L227.158 175.853L218.882 210.403L218.388 212.465H220.509H242.251H243.579L243.88 211.171L251.91 176.621L252.387 174.57H250.281H228.785Z" fill="#E4E3F3" stroke="url(#paint12_linear_432_867)" stroke-width="3.34483"/>
<path d="M277.251 258.549L313.214 163.517L313.507 162.742L313.069 162.04L308.722 155.067H362.051L367.744 163.503L376.211 258.549H348.586L345.992 228.533L345.86 227.005H344.326H320.261H319.107L318.698 228.084L307.143 258.549H277.251ZM325.565 210.126L324.708 212.391H327.129H342.718H344.548L344.384 210.568L341.386 177.316L338.156 176.873L325.565 210.126Z" fill="#E4E3F3" stroke="url(#paint13_linear_432_867)" stroke-width="3.34483"/>
<path d="M410.215 199.135H449.741L448.276 205.531L438.674 213.749H410.215H408.132L408.582 215.783L417.973 258.236L383.98 258.159L387.506 244.89L387.586 244.587L387.551 244.276L378.504 162.549L378.463 162.172L378.262 161.85L373.801 154.672H559.124L565.117 163.323L561.361 172.871H530H528.667L528.37 174.171L509.166 258.16L490.545 258.236L483.748 244.231L497.142 174.86L497.526 172.871H495.5H471.705H424.03H423.514L423.087 173.162L414.347 179.123L413.857 179.457L413.687 180.025L408.613 196.983L407.969 199.135H410.215Z" fill="#E4E3F3" stroke="url(#paint14_linear_432_867)" stroke-width="3.34483"/>
<path d="M670.403 201.133H630.823L636.398 176.336L636.856 174.296H634.766H613.422H612.106L611.796 175.576L603.531 209.789L603.032 211.854H605.157H658.431L665.168 222.528L649.659 288.426H560.999L548.62 276.049L555.835 246.067H595.028L590.205 266.737L589.727 268.79H591.834H613.492H614.818L615.12 267.498L623.072 233.545L623.553 231.491H621.443H575.276L562.151 218.936L574.56 165.673L574.722 164.979L574.333 164.381L568.272 155.067H671.527L678.524 165.762L670.403 201.133Z" fill="#E4E3F3" stroke="url(#paint15_linear_432_867)" stroke-width="3.34483"/>
</g>
<defs>
<filter id="filter0_diii_432_867" x="0.620689" y="-6.68966" width="890.733" height="324.448" filterUnits="userSpaceOnUse" color-interpolation-filters="sRGB">
<feFlood flood-opacity="0" result="BackgroundImageFix"/>
<feColorMatrix in="SourceAlpha" type="matrix" values="0 0 0 0 0 0 0 0 0 0 0 0 0 0 0 0 0 0 127 0" result="hardAlpha"/>
<feOffset dy="13.3793"/>
<feGaussianBlur stdDeviation="6.68966"/>
<feComposite in2="hardAlpha" operator="out"/>
<feColorMatrix type="matrix" values="0 0 0 0 0 0 0 0 0 0 0 0 0 0 0 0 0 0 0.55 0"/>
<feBlend mode="normal" in2="BackgroundImageFix" result="effect1_dropShadow_432_867"/>
<feBlend mode="normal" in="SourceGraphic" in2="effect1_dropShadow_432_867" result="shape"/>
<feColorMatrix in="SourceAlpha" type="matrix" values="0 0 0 0 0 0 0 0 0 0 0 0 0 0 0 0 0 0 127 0" result="hardAlpha"/>
<feOffset dy="4"/>
<feGaussianBlur stdDeviation="3.34483"/>
<feComposite in2="hardAlpha" operator="arithmetic" k2="-1" k3="1"/>
<feColorMatrix type="matrix" values="0 0 0 0 1 0 0 0 0 1 0 0 0 0 1 0 0 0 0.49 0"/>
<feBlend mode="normal" in2="shape" result="effect2_innerShadow_432_867"/>
<feColorMatrix in="SourceAlpha" type="matrix" values="0 0 0 0 0 0 0 0 0 0 0 0 0 0 0 0 0 0 127 0" result="hardAlpha"/>
<feOffset dy="-6.68966"/>
<feGaussianBlur stdDeviation="6.68966"/>
<feComposite in2="hardAlpha" operator="arithmetic" k2="-1" k3="1"/>
<feColorMatrix type="matrix" values="0 0 0 0 0 0 0 0 0 0 0 0 0 0 0 0 0 0 0.32 0"/>
<feBlend mode="normal" in2="effect2_innerShadow_432_867" result="effect3_innerShadow_432_867"/>
<feColorMatrix in="SourceAlpha" type="matrix" values="0 0 0 0 0 0 0 0 0 0 0 0 0 0 0 0 0 0 127 0" result="hardAlpha"/>
<feOffset dx="13.3793" dy="3.34483"/>
<feGaussianBlur stdDeviation="6.68966"/>
<feComposite in2="hardAlpha" operator="arithmetic" k2="-1" k3="1"/>
<feColorMatrix type="matrix" values="0 0 0 0 0 0 0 0 0 0 0 0 0 0 0 0 0 0 0.2 0"/>
<feBlend mode="normal" in2="effect3_innerShadow_432_867" result="effect4_innerShadow_432_867"/>
</filter>
<linearGradient id="paint0_linear_432_867" x1="106.976" y1="0" x2="106.976" y2="185.749" gradientUnits="userSpaceOnUse">
<stop stop-color="#00C0FC"/>
<stop offset="1" stop-color="#0056BA"/>
</linearGradient>
<linearGradient id="paint1_linear_432_867" x1="106.976" y1="0" x2="106.976" y2="185.749" gradientUnits="userSpaceOnUse">
<stop stop-color="#252525"/>
<stop offset="1"/>
</linearGradient>
<linearGradient id="paint2_linear_432_867" x1="260.869" y1="16.9854" x2="260.869" y2="138.352" gradientUnits="userSpaceOnUse">
<stop stop-color="#00C0FC"/>
<stop offset="1" stop-color="#0056BA"/>
</linearGradient>
<linearGradient id="paint3_linear_432_867" x1="260.869" y1="16.9854" x2="260.869" y2="138.352" gradientUnits="userSpaceOnUse">
<stop stop-color="#252525"/>
<stop offset="1"/>
</linearGradient>
<linearGradient id="paint4_linear_432_867" x1="395.874" y1="23.9561" x2="395.874" y2="131.148" gradientUnits="userSpaceOnUse">
<stop stop-color="#00C0FC"/>
<stop offset="1" stop-color="#0056BA"/>
</linearGradient>
<linearGradient id="paint5_linear_432_867" x1="395.874" y1="23.9561" x2="395.874" y2="131.148" gradientUnits="userSpaceOnUse">
<stop stop-color="#252525"/>
<stop offset="1"/>
</linearGradient>
<linearGradient id="paint6_linear_432_867" x1="553.533" y1="20.4429" x2="553.533" y2="133.257" gradientUnits="userSpaceOnUse">
<stop stop-color="#00C0FC"/>
<stop offset="1" stop-color="#0056BA"/>
</linearGradient>
<linearGradient id="paint7_linear_432_867" x1="553.533" y1="20.4429" x2="553.533" y2="133.257" gradientUnits="userSpaceOnUse">
<stop stop-color="#252525"/>
<stop offset="1"/>
</linearGradient>
<linearGradient id="paint8_linear_432_867" x1="677.452" y1="16.1279" x2="677.452" y2="137.134" gradientUnits="userSpaceOnUse">
<stop stop-color="#00C0FC"/>
<stop offset="1" stop-color="#0056BA"/>
</linearGradient>
<linearGradient id="paint9_linear_432_867" x1="677.452" y1="16.1279" x2="677.452" y2="137.134" gradientUnits="userSpaceOnUse">
<stop stop-color="#252525"/>
<stop offset="1"/>
</linearGradient>
<linearGradient id="paint10_linear_432_867" x1="787.891" y1="2.01855" x2="787.891" y2="181.988" gradientUnits="userSpaceOnUse">
<stop stop-color="#00C0FC"/>
<stop offset="1" stop-color="#0056BA"/>
</linearGradient>
<linearGradient id="paint11_linear_432_867" x1="787.891" y1="2.01855" x2="787.891" y2="181.988" gradientUnits="userSpaceOnUse">
<stop stop-color="#252525"/>
<stop offset="1"/>
</linearGradient>
<linearGradient id="paint12_linear_432_867" x1="227.049" y1="153.395" x2="227.049" y2="291" gradientUnits="userSpaceOnUse">
<stop stop-color="#252525"/>
<stop offset="1"/>
</linearGradient>
<linearGradient id="paint13_linear_432_867" x1="326.434" y1="153.395" x2="326.434" y2="260.221" gradientUnits="userSpaceOnUse">
<stop stop-color="#252525"/>
<stop offset="1"/>
</linearGradient>
<linearGradient id="paint14_linear_432_867" x1="423.838" y1="153" x2="423.838" y2="259.913" gradientUnits="userSpaceOnUse">
<stop stop-color="#252525"/>
<stop offset="1"/>
</linearGradient>
<linearGradient id="paint15_linear_432_867" x1="613.544" y1="153.395" x2="613.544" y2="290.099" gradientUnits="userSpaceOnUse">
<stop stop-color="#252525"/>
<stop offset="1"/>
</linearGradient>
</defs>
</svg>
