<svg width="1024" height="1024" viewBox="0 0 1024 1024" fill="none" xmlns="http://www.w3.org/2000/svg">
<g filter="url(#filter0_ii_468_1236)">
<path d="M258.636 713.263C253.884 713.263 249.594 712.702 245.765 711.58C241.937 710.524 238.637 708.907 235.865 706.728C233.093 704.55 230.947 701.844 229.429 698.61C227.977 695.442 227.251 691.746 227.251 687.521C227.251 686.003 227.383 684.221 227.647 682.175C227.911 680.129 228.406 677.819 229.132 675.245C229.858 672.604 230.947 669.667 232.4 666.433L244.577 670.69C243.851 672.736 243.224 674.617 242.696 676.334C242.168 677.984 241.772 679.535 241.508 680.987C241.244 682.373 241.112 683.759 241.112 685.145C241.112 687.719 241.706 690.095 242.894 692.274C244.082 694.452 245.996 696.168 248.637 697.422C251.277 698.742 254.742 699.402 259.032 699.402C262.992 699.402 266.293 698.94 268.933 698.016C271.573 697.158 273.652 695.937 275.17 694.353C276.688 692.835 277.777 691.053 278.437 689.006C279.097 686.96 279.428 684.749 279.428 682.373C279.428 680.525 279.196 678.446 278.734 676.136C278.338 673.825 277.744 671.317 276.952 668.611C276.16 665.839 275.269 662.935 274.279 659.899L288.14 656.334C289.064 660.163 289.79 663.133 290.318 665.245C290.912 667.357 291.374 668.941 291.704 669.997C292.364 671.977 293.156 673.495 294.08 674.551C295.07 675.542 296.16 676.202 297.348 676.532C298.602 676.862 299.988 677.027 301.506 677.027C302.76 677.027 303.915 676.829 304.971 676.433C306.027 676.037 306.984 675.212 307.842 673.957C308.766 672.637 309.591 670.624 310.317 667.918C311.044 665.212 311.704 661.483 312.298 656.73L325.366 658.809C325.102 660.328 324.838 661.945 324.574 663.661C324.31 665.377 324.079 666.994 323.881 668.512C323.683 669.964 323.584 671.152 323.584 672.076C323.584 672.934 323.815 673.726 324.277 674.452C324.805 675.179 325.729 675.773 327.05 676.235C328.37 676.697 330.251 676.928 332.693 676.928C335.729 676.928 337.94 676.301 339.326 675.046C340.778 673.726 341.504 671.746 341.504 669.106C341.504 667.588 341.471 665.971 341.405 664.255C341.339 662.473 341.207 660.493 341.009 658.314C340.877 656.07 340.613 653.529 340.217 650.691L352.989 649.701C353.517 655.839 354.111 660.724 354.771 664.354C355.431 667.984 356.289 670.723 357.345 672.571C358.468 674.353 359.887 675.542 361.603 676.136C363.319 676.664 365.464 676.928 368.038 676.928C370.546 676.928 372.328 677.588 373.384 678.908C374.507 680.162 375.068 681.746 375.068 683.66C375.068 685.706 374.374 687.422 372.988 688.808C371.602 690.128 369.622 690.788 367.048 690.788C364.276 690.788 361.603 690.425 359.029 689.699C356.454 688.973 354.177 687.686 352.197 685.838C350.283 683.924 348.831 681.251 347.841 677.819L351.603 678.413C350.745 681.977 349.293 684.65 347.247 686.432C345.267 688.214 343.023 689.402 340.514 689.996C338.006 690.524 335.498 690.788 332.99 690.788C329.69 690.788 326.752 690.293 324.178 689.303C321.67 688.313 319.69 686.894 318.238 685.046C316.852 683.198 316.192 680.954 316.258 678.314H319.624C318.634 681.944 317.281 684.65 315.565 686.432C313.849 688.214 311.935 689.402 309.822 689.996C307.71 690.524 305.565 690.788 303.387 690.788C301.671 690.788 300.021 690.623 298.437 690.293C296.853 689.963 295.401 689.435 294.08 688.709C292.826 687.917 291.737 686.894 290.813 685.64C289.889 684.32 289.262 682.736 288.932 680.888L292.595 684.848C292.463 689.336 291.572 693.33 289.922 696.828C288.272 700.326 285.962 703.296 282.992 705.738C280.088 708.181 276.556 710.029 272.398 711.283C268.306 712.603 263.719 713.263 258.636 713.263ZM367.192 690.788L368.182 676.928C370.558 676.928 372.604 676.697 374.32 676.235C376.036 675.773 377.489 674.848 378.677 673.462C379.865 672.01 380.855 669.898 381.647 667.126C382.505 664.354 383.264 660.658 383.924 656.037L396.894 658.215C396.762 659.205 396.564 660.361 396.3 661.681C396.102 663.001 395.904 664.354 395.706 665.74C395.574 667.06 395.508 668.314 395.508 669.502C395.508 670.69 395.739 671.746 396.201 672.67C396.663 673.594 397.389 674.386 398.379 675.046C399.435 675.641 400.788 676.103 402.438 676.433C404.154 676.763 406.233 676.928 408.676 676.928C411.184 676.928 412.966 677.588 414.022 678.908C415.078 680.162 415.606 681.746 415.606 683.66C415.606 685.706 414.913 687.422 413.527 688.808C412.207 690.128 410.26 690.788 407.685 690.788C404.715 690.788 402.009 690.557 399.567 690.095C397.191 689.633 395.112 688.874 393.33 687.818C391.613 686.696 390.194 685.244 389.072 683.462C388.016 681.614 387.356 679.37 387.092 676.73H391.844C390.656 679.898 389.138 682.439 387.29 684.353C385.508 686.201 383.495 687.587 381.251 688.511C379.007 689.435 376.663 690.029 374.221 690.293C371.845 690.623 369.502 690.788 367.192 690.788ZM398.973 647.127C397.059 647.127 395.409 646.467 394.023 645.147C392.703 643.761 392.042 642.143 392.042 640.295C392.042 638.381 392.703 636.731 394.023 635.345C395.409 633.959 397.059 633.266 398.973 633.266C400.821 633.266 402.405 633.959 403.725 635.345C405.045 636.731 405.705 638.381 405.705 640.295C405.705 642.143 405.045 643.761 403.725 645.147C402.405 646.467 400.821 647.127 398.973 647.127ZM381.845 647.028C379.931 647.028 378.281 646.368 376.895 645.048C375.574 643.662 374.914 642.044 374.914 640.196C374.914 638.282 375.574 636.632 376.895 635.246C378.281 633.86 379.931 633.167 381.845 633.167C383.693 633.167 385.277 633.86 386.597 635.246C387.917 636.632 388.577 638.282 388.577 640.196C388.577 642.044 387.917 643.662 386.597 645.048C385.277 646.368 383.693 647.028 381.845 647.028ZM407.703 690.788L408.693 677.027C414.172 677.027 418.561 676.994 421.861 676.928C425.227 676.862 427.835 676.73 429.683 676.532C431.597 676.268 433.016 675.971 433.94 675.641C434.864 675.245 435.656 674.815 436.316 674.353C437.108 673.759 437.768 672.967 438.296 671.977C438.89 670.921 439.352 669.535 439.682 667.819C440.012 666.103 440.177 663.958 440.177 661.384C440.177 658.149 439.88 655.443 439.286 653.265C438.758 651.021 437.966 649.338 436.91 648.216C435.92 647.094 434.699 646.533 433.247 646.533C432.191 646.533 431.201 646.896 430.277 647.622C429.353 648.282 428.594 649.206 428 650.394C427.405 651.582 427.108 652.935 427.108 654.453C427.108 655.311 427.339 656.07 427.802 656.73C428.264 657.39 428.99 657.885 429.98 658.215C430.97 658.545 432.224 658.71 433.742 658.71C435.194 658.71 436.712 658.545 438.296 658.215C439.946 657.819 441.464 657.291 442.85 656.631L443.246 668.413C442.19 669.139 440.969 669.799 439.583 670.393C438.197 670.987 436.712 671.449 435.128 671.779C433.61 672.043 432.059 672.175 430.475 672.175C426.976 672.175 423.94 671.713 421.366 670.789C418.858 669.799 416.911 668.215 415.525 666.037C414.139 663.859 413.446 660.889 413.446 657.126C413.446 654.222 413.941 651.351 414.931 648.513C415.921 645.609 417.34 643.001 419.188 640.691C421.036 638.315 423.214 636.434 425.722 635.048C428.231 633.596 431.003 632.87 434.039 632.87C438.527 632.87 442.223 634.19 445.128 636.83C448.098 639.404 450.276 642.902 451.662 647.325C453.114 651.681 453.84 656.532 453.84 661.879C453.84 666.565 453.147 670.657 451.761 674.155C450.375 677.588 448.725 680.294 446.811 682.274C445.227 683.924 443.411 685.31 441.365 686.432C439.319 687.554 436.811 688.445 433.841 689.105C430.937 689.699 427.339 690.128 423.049 690.392C418.825 690.656 413.71 690.788 407.703 690.788ZM433.841 623.662C431.795 623.662 430.046 622.969 428.594 621.583C427.207 620.197 426.514 618.481 426.514 616.435C426.514 614.389 427.207 612.64 428.594 611.187C430.046 609.735 431.795 609.009 433.841 609.009C435.821 609.009 437.504 609.735 438.89 611.187C440.342 612.64 441.068 614.389 441.068 616.435C441.068 618.481 440.342 620.197 438.89 621.583C437.504 622.969 435.821 623.662 433.841 623.662ZM465.61 690.293L463.531 617.821H477.392L479.471 690.293H465.61Z" fill="url(#paint0_linear_468_1236)"/>
<path d="M463.883 748.733L452.976 722.215C460.533 719.649 467.447 716.655 473.72 713.233C480.136 709.811 485.696 706.033 490.401 701.899C495.106 697.764 498.741 693.273 501.307 688.426C503.874 683.436 505.157 678.09 505.157 672.387C505.157 666.399 503.802 659.841 501.093 652.712C498.385 645.584 495.106 638.313 491.256 630.899L519.271 617.427C521.837 621.846 524.047 626.622 525.9 631.755C527.896 636.745 529.536 641.236 530.819 645.228C532.102 649.22 532.958 651.928 533.385 653.354C535.381 660.197 538.09 664.76 541.512 667.041C545.076 669.322 550.779 670.462 558.62 670.462C564.038 670.462 567.887 671.888 570.168 674.739C572.592 677.448 573.804 680.87 573.804 685.004C573.804 689.424 572.307 693.131 569.313 696.125C566.319 698.976 562.042 700.402 556.481 700.402C550.636 700.402 545.504 699.546 541.084 697.836C536.664 696.125 533.1 693.63 530.391 690.351C527.825 687.072 526.186 683.222 525.473 678.803L533.385 683.294C532.53 690.85 530.035 697.978 525.9 704.679C521.908 711.522 516.705 717.795 510.289 723.498C503.874 729.201 496.674 734.191 488.69 738.468C480.706 742.745 472.437 746.166 463.883 748.733ZM556.737 700.402L558.876 670.462H589.457C592.451 670.462 595.088 670.32 597.369 670.035C599.65 669.607 601.504 668.965 602.929 668.11C604.498 667.254 605.638 666.185 606.351 664.902C607.064 663.619 607.42 662.122 607.42 660.411C607.42 658.7 606.494 655.992 604.64 652.285C602.929 648.435 599.151 643.802 593.306 638.384C590.17 635.533 586.748 632.539 583.041 629.402C579.477 626.123 576.055 623.058 572.776 620.207C569.497 617.213 566.788 614.575 564.65 612.294C562.511 610.013 561.442 608.374 561.442 607.376C561.442 605.237 561.584 602.885 561.87 600.318C562.155 597.752 562.582 595.4 563.153 593.261C563.866 591.123 564.792 589.554 565.933 588.556C568.356 586.275 571.921 583.638 576.625 580.644C581.473 577.507 587.247 574.157 593.948 570.593C600.648 566.886 608.133 563.037 616.402 559.045C624.814 554.91 633.796 550.776 643.348 546.641L655.537 572.731C647.696 576.153 640.283 579.503 633.297 582.782C626.311 585.919 619.753 589.055 613.622 592.192C607.634 595.186 602.074 598.18 596.942 601.174C591.952 604.025 587.532 606.877 583.683 609.728L586.463 593.903C598.581 603.17 608.204 611.51 615.333 618.924C622.604 626.337 628.022 632.967 631.586 638.812C635.15 644.515 637.502 649.647 638.643 654.209C639.784 658.629 640.354 662.55 640.354 665.971C640.354 669.393 639.498 673.1 637.788 677.092C636.219 680.941 633.297 684.648 629.02 688.212C624.885 691.776 619.04 694.699 611.484 696.98C603.927 699.261 594.233 700.402 582.4 700.402H556.737Z" fill="url(#paint1_linear_468_1236)"/>
<path d="M47.4644 489.284C47.4644 483.964 47.9271 477.718 48.8524 470.547C49.7777 463.375 51.5127 455.279 54.0573 446.257C56.6019 437.004 60.4188 426.71 65.5081 415.375L108.188 430.295C105.644 437.467 103.446 444.059 101.595 450.074C99.7447 455.857 98.3567 461.293 97.4314 466.383C96.5061 471.241 96.0434 476.098 96.0434 480.956C96.0434 488.59 97.6627 495.414 100.901 501.429C104.371 507.675 109.345 512.88 115.822 517.044C122.299 521.439 130.164 524.793 139.418 527.106C148.902 529.42 159.775 530.576 172.035 530.576C184.758 530.576 196.093 529.998 206.04 528.841C216.219 527.685 224.778 525.95 231.718 523.637C238.889 521.323 244.325 518.316 248.026 514.615C251.728 511.145 253.578 507.097 253.578 502.47C253.578 500.388 252.769 498.422 251.149 496.571C249.761 494.72 247.332 492.754 243.862 490.672C240.624 488.59 236.229 486.393 230.677 484.079C225.356 481.766 218.879 479.221 211.245 476.445L222.696 427.519C232.643 431.683 242.012 435.385 250.802 438.623C259.824 441.63 268.383 444.175 276.48 446.257C284.576 448.108 292.21 449.611 299.381 450.768C306.553 451.693 313.261 452.156 319.507 452.156C328.297 452.156 334.543 454.469 338.245 459.096C341.946 463.491 343.796 469.043 343.796 475.751C343.796 482.923 341.368 488.937 336.51 493.795C331.652 498.422 324.828 500.735 316.037 500.735C314.186 500.735 312.336 500.735 310.485 500.735C308.866 500.735 307.131 500.735 305.28 500.735C303.661 500.735 301.926 500.735 300.075 500.735C300.538 503.048 300.769 505.015 300.769 506.634C300.769 508.484 300.769 510.219 300.769 511.839C300.769 519.473 298.109 527.222 292.789 535.087C287.699 542.952 279.718 550.239 268.846 556.948C257.974 563.656 244.094 568.977 227.207 572.91C210.551 577.073 190.657 579.155 167.524 579.155C142.541 579.155 121.027 575.917 102.983 569.44C85.171 563.194 71.4069 553.362 61.6911 539.945C52.2067 526.759 47.4644 509.872 47.4644 489.284ZM201.529 659.658C194.821 659.658 189.038 657.229 184.18 652.371C179.553 647.744 177.24 642.192 177.24 635.715C177.24 629.007 179.553 623.224 184.18 618.366C189.038 613.508 194.821 611.079 201.529 611.079C208.007 611.079 213.558 613.508 218.185 618.366C222.812 623.224 225.125 629.007 225.125 635.715C225.125 642.192 222.812 647.744 218.185 652.371C213.558 657.229 208.007 659.658 201.529 659.658ZM141.5 659.658C134.791 659.658 129.008 657.229 124.15 652.371C119.523 647.744 117.21 642.192 117.21 635.715C117.21 629.007 119.523 623.224 124.15 618.366C129.008 613.508 134.791 611.079 141.5 611.079C147.977 611.079 153.529 613.508 158.155 618.366C162.782 623.224 165.095 629.007 165.095 635.715C165.095 642.192 162.782 647.744 158.155 652.371C153.529 657.229 147.977 659.658 141.5 659.658ZM315.969 500.735L319.439 452.156C324.76 452.156 329.271 450.884 332.972 448.339C336.905 445.563 340.953 441.052 345.117 434.806C349.281 428.329 354.139 419.654 359.69 408.782C366.63 394.902 373.801 384.03 381.204 376.164C388.838 368.299 396.587 362.747 404.453 359.509C412.549 356.039 420.646 354.304 428.742 354.304C438.92 354.304 448.405 356.502 457.195 360.897C465.986 365.292 473.62 371.307 480.097 378.94C486.574 386.343 491.548 394.902 495.018 404.618C498.719 414.102 500.57 423.934 500.57 434.112C500.57 446.373 497.909 457.476 492.589 467.424C487.5 477.139 480.328 484.889 471.075 490.672C462.053 496.224 451.644 499 439.846 499C429.899 499 418.332 497.265 405.146 493.795C391.961 490.325 378.081 483.038 363.507 471.935L381.204 429.948C391.614 437.12 401.33 442.324 410.351 445.563C419.605 448.802 427.238 450.421 433.253 450.421C437.879 450.421 441.696 449.958 444.704 449.033C447.711 448.108 449.909 446.604 451.297 444.522C452.685 442.44 453.379 439.664 453.379 436.194C453.379 431.336 452.222 426.363 449.909 421.274C447.595 416.184 444.472 411.905 440.54 408.435C436.839 404.734 432.443 402.883 427.354 402.883C422.496 402.883 418.332 404.734 414.862 408.435C411.624 411.905 408.385 416.994 405.146 423.703C402.139 430.18 398.438 437.814 394.043 446.604C388.722 457.245 383.517 466.151 378.428 473.323C373.339 480.262 367.903 485.814 362.119 489.978C356.567 493.911 349.975 496.687 342.341 498.306C334.938 499.925 326.148 500.735 315.969 500.735ZM509.589 578.808L491.892 534.393C511.786 527.453 527.864 519.82 540.124 511.492C552.616 503.164 561.753 494.258 567.537 484.773C573.551 475.289 576.558 465.457 576.558 455.279C576.558 448.802 575.633 442.093 573.782 435.153C571.932 427.982 569.271 420.464 565.802 412.599C562.563 404.734 558.63 396.521 554.004 387.962L599.46 366.102C607.556 381.601 613.802 396.406 618.197 410.517C622.824 424.628 625.137 437.814 625.137 450.074C625.137 461.409 623.634 472.282 620.626 482.691C617.85 493.101 613.455 502.817 607.441 511.839C601.657 521.092 594.139 529.767 584.886 537.863C575.633 545.96 564.761 553.362 552.269 560.071C539.777 567.011 525.55 573.257 509.589 578.808ZM586.274 330.708C579.103 330.708 572.973 328.279 567.883 323.422C563.026 318.564 560.597 312.549 560.597 305.378C560.597 298.207 563.026 292.076 567.883 286.987C572.973 281.898 579.103 279.353 586.274 279.353C593.214 279.353 599.113 281.898 603.971 286.987C609.06 292.076 611.605 298.207 611.605 305.378C611.605 312.549 609.06 318.564 603.971 323.422C599.113 328.279 593.214 330.708 586.274 330.708ZM665.798 578.808L655.735 530.229C672.159 528.147 686.502 525.603 698.762 522.596C711.023 519.82 721.317 515.887 729.645 510.798C737.972 505.709 744.218 498.769 748.382 489.978C752.546 480.956 754.628 469.39 754.628 455.279C754.628 441.63 752.546 430.758 748.382 422.662C744.218 414.565 738.666 410.517 731.727 410.517C726.869 410.517 722.82 412.252 719.582 415.722C716.343 418.96 713.914 422.893 712.295 427.519C710.907 431.915 710.213 435.847 710.213 439.317C710.213 441.399 710.791 443.597 711.948 445.91C713.105 448.223 715.649 450.19 719.582 451.809C723.514 453.428 729.645 454.354 737.972 454.585C746.532 454.816 758.098 454.007 772.672 452.156H830.967C839.757 452.156 846.003 454.469 849.704 459.096C853.637 463.491 855.603 469.043 855.603 475.751C855.603 482.923 853.174 488.937 848.316 493.795C843.458 498.422 836.518 500.735 827.497 500.735H732.074C717.5 500.735 705.008 499 694.598 495.53C684.189 492.06 676.208 486.508 670.656 478.874C665.104 471.009 662.328 460.599 662.328 447.645C662.328 437.235 664.063 426.825 667.533 416.416C671.234 406.006 676.323 396.521 682.801 387.962C689.278 379.172 696.796 372.232 705.355 367.143C714.146 361.822 723.63 359.162 733.809 359.162C747.688 359.162 759.833 363.441 770.243 372.001C780.653 380.56 788.749 391.895 794.532 406.006C800.547 420.117 803.554 435.5 803.554 452.156C803.554 478.296 798.002 500.504 786.898 518.779C775.795 537.054 759.949 551.165 739.36 561.112C718.772 571.29 694.251 577.189 665.798 578.808ZM827.987 500.735L831.457 452.156H881.077C885.935 452.156 890.215 451.925 893.916 451.462C897.617 450.768 900.625 449.727 902.938 448.339C905.482 446.951 907.333 445.216 908.49 443.134C909.646 441.052 910.225 438.623 910.225 435.847C910.225 433.071 908.721 428.676 905.714 422.662C902.938 416.416 896.808 408.897 887.323 400.107C882.234 395.48 876.682 390.623 870.667 385.533C864.884 380.213 859.332 375.239 854.012 370.613C848.691 365.755 844.296 361.475 840.826 357.774C837.356 354.073 835.621 351.412 835.621 349.793C835.621 346.323 835.852 342.506 836.315 338.342C836.778 334.178 837.472 330.361 838.397 326.891C839.554 323.422 841.057 320.877 842.908 319.258C846.841 315.556 852.624 311.277 860.258 306.419C868.123 301.33 877.492 295.893 888.364 290.11C899.237 284.096 911.381 277.85 924.798 271.373C938.447 264.664 953.02 257.955 968.519 251.247L988.298 293.58C975.575 299.132 963.546 304.568 952.211 309.889C940.876 314.978 930.235 320.067 920.287 325.156C910.572 330.014 901.55 334.872 893.222 339.73C885.125 344.357 877.954 348.983 871.708 353.61L876.219 327.932C895.882 342.969 911.497 356.502 923.063 368.531C934.861 380.56 943.652 391.316 949.435 400.801C955.218 410.054 959.035 418.382 960.886 425.784C962.736 432.956 963.662 439.317 963.662 444.869C963.662 450.421 962.274 456.436 959.498 462.913C956.953 469.159 952.211 475.173 945.271 480.956C938.562 486.74 929.078 491.482 916.818 495.183C904.557 498.884 888.827 500.735 869.626 500.735H827.987Z" fill="#28A0F0"/>
</g>
<defs>
<filter id="filter0_ii_468_1236" x="47.4644" y="246.618" width="942.685" height="505.818" filterUnits="userSpaceOnUse" color-interpolation-filters="sRGB">
<feFlood flood-opacity="0" result="BackgroundImageFix"/>
<feBlend mode="normal" in="SourceGraphic" in2="BackgroundImageFix" result="shape"/>
<feColorMatrix in="SourceAlpha" type="matrix" values="0 0 0 0 0 0 0 0 0 0 0 0 0 0 0 0 0 0 127 0" result="hardAlpha"/>
<feOffset dy="3.70312"/>
<feGaussianBlur stdDeviation="3.70312"/>
<feComposite in2="hardAlpha" operator="arithmetic" k2="-1" k3="1"/>
<feColorMatrix type="matrix" values="0 0 0 0 1 0 0 0 0 1 0 0 0 0 1 0 0 0 0.24 0"/>
<feBlend mode="normal" in2="shape" result="effect1_innerShadow_468_1236"/>
<feColorMatrix in="SourceAlpha" type="matrix" values="0 0 0 0 0 0 0 0 0 0 0 0 0 0 0 0 0 0 127 0" result="hardAlpha"/>
<feOffset dx="1.85156" dy="-4.62891"/>
<feGaussianBlur stdDeviation="3.05508"/>
<feComposite in2="hardAlpha" operator="arithmetic" k2="-1" k3="1"/>
<feColorMatrix type="matrix" values="0 0 0 0 0 0 0 0 0 0 0 0 0 0 0 0 0 0 0.28 0"/>
<feBlend mode="normal" in2="effect1_innerShadow_468_1236" result="effect2_innerShadow_468_1236"/>
</filter>
<linearGradient id="paint0_linear_468_1236" x1="354.719" y1="604.293" x2="354.719" y2="706.285" gradientUnits="userSpaceOnUse">
<stop stop-color="#EEF4F7"/>
<stop offset="1" stop-color="#99C0D8"/>
</linearGradient>
<linearGradient id="paint1_linear_468_1236" x1="557.155" y1="512.333" x2="557.155" y2="732.635" gradientUnits="userSpaceOnUse">
<stop stop-color="#EEF4F7"/>
<stop offset="1" stop-color="#99C0D8"/>
</linearGradient>
</defs>
</svg>
