<svg width="1024" height="1024" viewBox="0 0 1024 1024" fill="none" xmlns="http://www.w3.org/2000/svg">
<path d="M81.8797 390.599L0 376L20.3113 395.677V582.921L43.7961 607.04H81.8797V525.161H111.077L162.49 607.04H210.729L222.789 593.076L162.49 499.137L227.867 407.736L215.807 390.599H162.49L116.155 474.383H81.8797V390.599Z" fill="#28A0F0"/>
<path d="M879.772 394.596L800 380L819.788 399.673V586.885L842.669 611H879.772V529.135H908.217L958.306 611H1005.3L1017.05 597.038L958.306 503.115L1022 411.731L1010.25 394.596H958.306L913.164 478.365H879.772V394.596Z" fill="#28A0F0"/>
<path d="M224.717 520.096C218.197 515.274 214.985 512.817 208.428 507.827C218.477 472.366 228.772 437.001 239.315 401.73C235.665 396.869 233.743 394.425 230.021 389.46C272.305 392.434 314.618 394.731 356.96 396.352C360.743 400.592 362.641 402.7 366.424 406.889C355.735 439.031 345.192 471.242 334.796 503.521C327.667 507.853 324.091 509.986 316.962 514.511C286.218 516.028 255.469 517.89 224.717 520.096ZM287.329 413.418C278.635 441 270.12 468.656 261.783 496.384C270.314 496.04 278.83 495.704 287.329 495.376C295.609 468.302 304.043 441.28 312.632 414.31C304.189 414.026 295.755 413.728 287.329 413.418Z" fill="#28A0F0"/>
<path d="M461.154 473.84C457.674 486.182 452.241 501.852 448.872 514.236C420.284 516.66 393.741 516.154 365.225 519.333C360.787 515.524 356.395 511.649 352.048 507.708C359.998 473.404 368.258 439.179 376.827 405.034C373.846 400.234 372.36 397.762 369.379 392.879C403.265 396.612 436.339 397.125 470.323 399.771C473.255 403.77 475.66 408.421 478.641 412.327C475.839 421.926 473.066 431.536 470.323 441.156C456.749 440.859 443.175 440.543 429.601 440.211C431.556 432.883 433.553 425.559 435.593 418.238L415.301 416.992C408.263 443.234 401.421 469.529 394.774 495.875L415.301 494.524C417.041 488.014 418.794 481.507 420.559 475.004C434.075 474.588 447.606 474.2 461.154 473.84Z" fill="#28A0F0"/>
<path d="M459.351 510.294C470.818 476.377 482.261 442.451 493.679 408.516L484.495 398.755C505.856 398.556 527.213 398.199 548.567 397.682C552.289 401.651 554.15 403.629 557.861 407.624L559.393 468.262C573.066 444.317 586.537 420.239 599.805 396.027C619.779 395.216 639.745 394.268 659.704 393.182C663.426 397.307 665.275 399.375 668.997 403.525C657.709 440.658 646.128 477.687 634.255 514.613C617.427 513.811 600.603 513.109 583.784 512.505C593.11 484.061 602.31 455.544 611.385 426.953C595.79 455.449 579.883 483.751 563.663 511.859C553.753 511.557 543.839 511.303 533.92 511.096L532.096 444.873C524.716 466.818 517.291 488.746 509.822 510.656C493.002 510.467 476.178 510.346 459.351 510.294Z" fill="#28A0F0"/>
<path d="M712.014 392.292C690.661 392.809 688.686 392.094 667.324 392.292L674.121 398.849L680.57 404.333L651.048 515.615C660.966 515.822 678.257 516.077 688.167 516.378C712.014 486.316 739.044 458.587 760.537 430.063C755.252 460.191 753.444 483.702 748.957 515.615C765.776 516.219 772.687 518.331 789.515 519.132C793.566 483.905 798.943 449.393 808.237 408.045C804.515 403.895 802.665 401.826 798.943 397.702C778.985 398.788 759.018 399.736 739.044 400.546C721.308 425.431 704.683 445.325 683.897 472.781L721.308 402.235C717.598 398.239 715.737 396.261 712.014 392.292Z" fill="#28A0F0"/>
<path fill-rule="evenodd" clip-rule="evenodd" d="M290.779 618.413L276.926 673.171H236.307L264.281 553.387L257.103 541.552H360.244L367.691 552.995L346.53 618.555L290.779 618.413ZM295.743 596.452L303.659 563.405H324.22L316.539 596.452H295.743Z" fill="url(#paint0_linear_468_1236)"/>
<path d="M347.702 643.731L382.919 550.667L377.237 541.552H431.979L438.131 550.667L446.421 643.731H416.782L414.175 613.559H391.157L379.713 643.731H347.702ZM397.726 596.382H412.637L409.769 564.575L397.726 596.382Z" fill="url(#paint1_linear_468_1236)"/>
<path d="M587.646 561.78L574.733 628.655L581.907 643.436L601.993 643.353L620.645 561.78H651.731L656.035 550.839L649.34 541.173H555.575L564.886 561.78H587.646Z" fill="url(#paint2_linear_468_1236)"/>
<path d="M751.888 626.855C748.205 639.917 742.455 656.5 738.89 669.606C708.635 672.171 680.544 671.636 650.366 675.001C645.669 670.969 641.021 666.868 636.421 662.697C644.835 626.393 653.576 590.173 662.645 554.037C659.49 548.958 657.917 546.341 654.762 541.173C690.623 545.124 725.626 545.667 761.591 548.467C764.695 552.7 767.239 557.621 770.395 561.755C767.429 571.914 764.495 582.084 761.591 592.266C747.226 591.95 732.861 591.617 718.495 591.265C720.564 583.51 722.678 575.759 724.837 568.011L703.361 566.692C695.913 594.464 688.672 622.292 681.637 650.175L703.361 648.745C705.203 641.855 707.058 634.969 708.927 628.086C723.23 627.646 737.55 627.236 751.888 626.855Z" fill="url(#paint3_linear_468_1236)"/>
<path d="M497.77 548.145V552.518V573.531V615.87V634.717V641.255L493.71 643.962H524.566L521.588 641.255V634.726L521.526 615.81L521.387 573.762L521.318 552.63V548.145L526.19 544.085H493.71L497.77 548.145Z" fill="url(#paint4_linear_468_1236)"/>
<path fill-rule="evenodd" clip-rule="evenodd" d="M508.933 629.459C539.346 629.459 564 621.274 564 592.5C564 565.711 539.346 555.541 508.933 555.541C478.52 555.541 453.866 564.222 453.866 592.5C453.866 617.305 478.52 629.459 508.933 629.459ZM508.933 612.648C525.92 612.648 539.691 608.076 539.691 592.004C539.691 577.041 525.92 571.36 508.933 571.36C491.946 571.36 478.175 576.209 478.175 592.004C478.175 605.859 491.946 612.648 508.933 612.648Z" fill="url(#paint5_linear_468_1236)"/>
<defs>
<linearGradient id="paint0_linear_468_1236" x1="301.999" y1="541.552" x2="301.999" y2="673.171" gradientUnits="userSpaceOnUse">
<stop stop-color="#EEF4F7"/>
<stop offset="1" stop-color="#99C0D8"/>
</linearGradient>
<linearGradient id="paint1_linear_468_1236" x1="397.061" y1="541.552" x2="397.061" y2="643.731" gradientUnits="userSpaceOnUse">
<stop stop-color="#EEF4F7"/>
<stop offset="1" stop-color="#99C0D8"/>
</linearGradient>
<linearGradient id="paint2_linear_468_1236" x1="605.805" y1="541.173" x2="605.805" y2="643.436" gradientUnits="userSpaceOnUse">
<stop stop-color="#EEF4F7"/>
<stop offset="1" stop-color="#99C0D8"/>
</linearGradient>
<linearGradient id="paint3_linear_468_1236" x1="703.408" y1="541.173" x2="703.408" y2="675.001" gradientUnits="userSpaceOnUse">
<stop stop-color="#EEF4F7"/>
<stop offset="1" stop-color="#99C0D8"/>
</linearGradient>
<linearGradient id="paint4_linear_468_1236" x1="509.95" y1="544.085" x2="509.95" y2="643.962" gradientUnits="userSpaceOnUse">
<stop stop-color="#EEF4F7"/>
<stop offset="1" stop-color="#99C0D8"/>
</linearGradient>
<linearGradient id="paint5_linear_468_1236" x1="508.933" y1="555.541" x2="508.933" y2="629.459" gradientUnits="userSpaceOnUse">
<stop stop-color="#EEF4F7"/>
<stop offset="1" stop-color="#99C0D8"/>
</linearGradient>
</defs>
</svg>
