<svg width="1024" height="1024" viewBox="0 0 1024 1024" fill="none" xmlns="http://www.w3.org/2000/svg">
<g filter="url(#filter0_ii_468_1236)">
<path d="M331.791 321H275.792L294.921 334.03V356.208H169.338L161.575 372.009V442.424L169.338 452.405H199.832L205.1 442.424V403.89L213.139 398.068H427.711L436.305 403.89V442.424L444.068 452.405H475.948L482.602 442.424V372.009L472.067 356.208H343.989V331.812L331.791 321Z" fill="#28A0F0"/>
<path d="M240.307 429.118L229.218 442.424L225.337 457.395L209.813 469.87H296.029V511.453H166.565L160.744 519.493V539.176L172.11 553.037H296.029C296.861 574.291 297.804 617.797 294.921 621.789C292.037 625.781 236.981 624.191 209.813 622.898C216.651 626.132 230.715 633.1 232.268 635.096C233.82 637.092 241.047 657.366 244.466 667.254C242.987 667.808 251.008 668.363 294.921 666.145C338.833 663.927 345.93 636.574 343.989 623.175V552.205H462.919L473.453 546.384L481.77 519.77L492.305 510.067H343.989V470.147H399.712L407.751 458.226V442.424L422.998 429.118H240.307Z" fill="#28A0F0"/>
<path d="M743.384 321.233H687.106L677.125 334.399V356.809H557.639L549.876 372.777V443.929L557.639 454.013H588.134L593.402 443.929V404.991L601.441 399.109H809.365L817.959 404.991V443.929L825.721 454.013H857.603L864.256 443.929V372.777L853.722 356.809H726.195V332.158L743.384 321.233Z" fill="#28A0F0"/>
<path fill-rule="evenodd" clip-rule="evenodd" d="M716.492 414.235H662.709L684.333 429.082V461.577H598.669L581.758 478.104V655.705L573.164 667.75H620.847L625.56 662.708V655.705H786.909V662.708L793.285 667.75H843.464L833.761 655.705V478.104L813.8 461.577H726.195V429.082L716.492 414.235ZM625.006 505.557L631.382 499.114L684.333 499.114L691.264 505.557V538.976L684.333 546.539L631.382 546.539L625.006 538.976V505.557ZM726.195 499.114L719.819 505.557V538.976L726.195 546.539L780.533 546.539L787.463 538.976V505.557L780.533 499.114L726.195 499.114ZM719.542 583.432L725.918 576.989L780.255 576.989L787.186 583.432V620.714L780.255 628.278L725.918 628.278L719.542 620.714V583.432ZM631.105 576.989L624.729 583.432V620.714L631.105 628.278L684.056 628.278L690.987 620.714V583.432L684.056 576.989L631.105 576.989Z" fill="#28A0F0"/>
<path d="M448.576 572.91H359.693L366.238 578.223V583.536L370.711 587.804H400.946V647.556H362.676L359.693 652.869V657.137L353.563 661.754H466.885L460.755 657.137V652.869L456.53 647.556H417.431V587.804H450.566L454.625 583.536V578.223L448.576 572.91Z" fill="url(#paint0_linear_468_1236)"/>
<path d="M494.922 562.258H479.593L483.077 566.264V573.755L453.812 573.058L458.428 577.5V583.597L461.128 586.558H482.903V592.394L479.593 595.529H500.758L497.709 592.394V586.558H524.013V592.394L520.79 595.529H541.519L538.297 592.394V586.558H559.2L562.423 583.597V576.716L566.516 573.058H538.297V566.264L542.39 562.258H526.277L524.013 566.264V573.058H497.709V566.264L494.922 562.258Z" fill="url(#paint1_linear_468_1236)"/>
<path d="M538.297 602.061H460.93L468.072 606.068V611.033L474.367 615.213H511.645C503.225 620.352 485.846 631.082 483.686 632.894C480.986 635.159 472.757 639.014 471.754 650.401C470.535 664.249 487.606 667.704 497.012 667.82H543.174C545.961 667.82 549.445 667.385 555.716 663.988C560.733 661.271 562.51 650.778 562.771 645.872L560.071 640.297L547.79 631.239C548.545 632.894 550.09 636.517 550.229 637.772C550.403 639.339 548.661 649.007 547.268 651.881C546.153 654.181 542.855 654.523 541.345 654.407C529.18 654.465 503.283 654.547 497.012 654.407C489.174 654.233 486.212 652.752 486.038 650.401C485.864 648.049 485.603 647.962 492.135 641.865C497.361 636.988 530.603 619.858 546.571 611.904L548.661 607.549L544.394 603.978L550.839 597.271L538.297 602.061Z" fill="url(#paint2_linear_468_1236)"/>
</g>
<defs>
<filter id="filter0_ii_468_1236" x="160.744" y="316.343" width="705.375" height="355.203" filterUnits="userSpaceOnUse" color-interpolation-filters="sRGB">
<feFlood flood-opacity="0" result="BackgroundImageFix"/>
<feBlend mode="normal" in="SourceGraphic" in2="BackgroundImageFix" result="shape"/>
<feColorMatrix in="SourceAlpha" type="matrix" values="0 0 0 0 0 0 0 0 0 0 0 0 0 0 0 0 0 0 127 0" result="hardAlpha"/>
<feOffset dy="3.72553"/>
<feGaussianBlur stdDeviation="3.72553"/>
<feComposite in2="hardAlpha" operator="arithmetic" k2="-1" k3="1"/>
<feColorMatrix type="matrix" values="0 0 0 0 1 0 0 0 0 1 0 0 0 0 1 0 0 0 0.24 0"/>
<feBlend mode="normal" in2="shape" result="effect1_innerShadow_468_1236"/>
<feColorMatrix in="SourceAlpha" type="matrix" values="0 0 0 0 0 0 0 0 0 0 0 0 0 0 0 0 0 0 127 0" result="hardAlpha"/>
<feOffset dx="1.86276" dy="-4.65691"/>
<feGaussianBlur stdDeviation="3.07356"/>
<feComposite in2="hardAlpha" operator="arithmetic" k2="-1" k3="1"/>
<feColorMatrix type="matrix" values="0 0 0 0 0 0 0 0 0 0 0 0 0 0 0 0 0 0 0.28 0"/>
<feBlend mode="normal" in2="effect1_innerShadow_468_1236" result="effect2_innerShadow_468_1236"/>
</filter>
<linearGradient id="paint0_linear_468_1236" x1="410.224" y1="572.91" x2="410.224" y2="661.754" gradientUnits="userSpaceOnUse">
<stop stop-color="white"/>
<stop offset="1" stop-color="#79829B"/>
</linearGradient>
<linearGradient id="paint1_linear_468_1236" x1="510.164" y1="562.258" x2="510.164" y2="667.82" gradientUnits="userSpaceOnUse">
<stop stop-color="white"/>
<stop offset="1" stop-color="#79829B"/>
</linearGradient>
<linearGradient id="paint2_linear_468_1236" x1="510.164" y1="562.258" x2="510.164" y2="667.82" gradientUnits="userSpaceOnUse">
<stop stop-color="white"/>
<stop offset="1" stop-color="#79829B"/>
</linearGradient>
</defs>
</svg>
