<svg width="1024" height="1024" viewBox="0 0 1024 1024" fill="none" xmlns="http://www.w3.org/2000/svg">
<g filter="url(#filter0_ii_468_1236)">
<path d="M301.933 665.522C297.992 665.522 294.435 665.057 291.261 664.127C288.087 663.251 285.351 661.91 283.052 660.105C280.754 658.299 278.975 656.055 277.717 653.373C276.513 650.747 275.911 647.682 275.911 644.18C275.911 642.921 276.02 641.443 276.239 639.747C276.458 638.05 276.869 636.135 277.471 634.001C278.073 631.812 278.975 629.376 280.179 626.695L290.276 630.225C289.674 631.921 289.154 633.481 288.717 634.904C288.279 636.272 287.95 637.558 287.731 638.762C287.513 639.911 287.403 641.06 287.403 642.209C287.403 644.344 287.896 646.314 288.881 648.12C289.866 649.926 291.453 651.349 293.642 652.388C295.831 653.483 298.704 654.03 302.261 654.03C305.544 654.03 308.281 653.647 310.47 652.881C312.659 652.169 314.383 651.157 315.641 649.844C316.9 648.585 317.803 647.107 318.35 645.411C318.897 643.714 319.171 641.881 319.171 639.911C319.171 638.379 318.979 636.655 318.596 634.74C318.268 632.824 317.775 630.745 317.119 628.501C316.462 626.202 315.723 623.795 314.902 621.277L326.395 618.322C327.161 621.496 327.763 623.959 328.201 625.71C328.693 627.461 329.076 628.774 329.35 629.65C329.897 631.292 330.554 632.551 331.32 633.426C332.141 634.247 333.044 634.794 334.029 635.068C335.069 635.341 336.218 635.478 337.476 635.478C338.516 635.478 339.474 635.314 340.35 634.986C341.225 634.657 342.019 633.973 342.73 632.934C343.496 631.839 344.18 630.17 344.782 627.926C345.384 625.683 345.931 622.591 346.424 618.65L357.26 620.374C357.041 621.633 356.822 622.974 356.603 624.396C356.384 625.819 356.192 627.16 356.028 628.419C355.864 629.623 355.782 630.608 355.782 631.374C355.782 632.085 355.974 632.742 356.357 633.344C356.794 633.946 357.561 634.439 358.655 634.822C359.75 635.205 361.309 635.396 363.334 635.396C365.851 635.396 367.685 634.876 368.834 633.837C370.038 632.742 370.64 631.1 370.64 628.911C370.64 627.653 370.612 626.312 370.558 624.889C370.503 623.411 370.394 621.77 370.229 619.964C370.12 618.103 369.901 615.996 369.573 613.643L380.162 612.822C380.6 617.912 381.092 621.961 381.64 624.971C382.187 627.981 382.898 630.252 383.774 631.784C384.704 633.262 385.881 634.247 387.304 634.74C388.726 635.177 390.505 635.396 392.639 635.396C394.719 635.396 396.196 635.943 397.072 637.038C398.002 638.078 398.467 639.391 398.467 640.978C398.467 642.675 397.893 644.097 396.744 645.247C395.594 646.341 393.953 646.888 391.818 646.888C389.52 646.888 387.304 646.587 385.169 645.986C383.035 645.384 381.147 644.316 379.505 642.784C377.918 641.197 376.714 638.981 375.893 636.135L379.013 636.628C378.301 639.583 377.097 641.799 375.401 643.277C373.759 644.754 371.898 645.739 369.819 646.232C367.739 646.67 365.66 646.888 363.58 646.888C360.844 646.888 358.409 646.478 356.275 645.657C354.195 644.836 352.553 643.66 351.349 642.127C350.2 640.595 349.653 638.734 349.708 636.545H352.498C351.678 639.555 350.556 641.799 349.133 643.277C347.71 644.754 346.123 645.739 344.372 646.232C342.621 646.67 340.842 646.888 339.036 646.888C337.613 646.888 336.245 646.752 334.932 646.478C333.618 646.204 332.414 645.767 331.32 645.165C330.28 644.508 329.377 643.66 328.611 642.62C327.845 641.525 327.325 640.212 327.051 638.68L330.089 641.963C329.979 645.685 329.24 648.995 327.872 651.896C326.504 654.796 324.589 657.259 322.126 659.284C319.718 661.308 316.79 662.841 313.343 663.881C309.95 664.975 306.146 665.522 301.933 665.522ZM391.938 646.888L392.759 635.396C394.729 635.396 396.425 635.205 397.848 634.822C399.271 634.439 400.475 633.672 401.46 632.523C402.445 631.319 403.266 629.568 403.922 627.27C404.634 624.971 405.263 621.907 405.81 618.076L416.564 619.882C416.454 620.703 416.29 621.66 416.071 622.755C415.907 623.849 415.743 624.971 415.579 626.12C415.469 627.215 415.415 628.255 415.415 629.24C415.415 630.225 415.606 631.1 415.989 631.866C416.372 632.633 416.974 633.289 417.795 633.837C418.671 634.329 419.793 634.712 421.161 634.986C422.584 635.259 424.307 635.396 426.332 635.396C428.412 635.396 429.889 635.943 430.765 637.038C431.641 638.078 432.078 639.391 432.078 640.978C432.078 642.675 431.504 644.097 430.355 645.247C429.26 646.341 427.646 646.888 425.511 646.888C423.049 646.888 420.805 646.697 418.78 646.314C416.81 645.931 415.086 645.301 413.609 644.426C412.186 643.496 411.009 642.292 410.079 640.814C409.203 639.282 408.656 637.421 408.437 635.232H412.377C411.392 637.859 410.134 639.966 408.601 641.553C407.124 643.085 405.455 644.234 403.594 645C401.733 645.767 399.791 646.259 397.766 646.478C395.796 646.752 393.853 646.888 391.938 646.888ZM418.288 610.688C416.701 610.688 415.333 610.141 414.183 609.046C413.089 607.897 412.542 606.556 412.542 605.024C412.542 603.437 413.089 602.069 414.183 600.919C415.333 599.77 416.701 599.196 418.288 599.196C419.82 599.196 421.133 599.77 422.228 600.919C423.322 602.069 423.87 603.437 423.87 605.024C423.87 606.556 423.322 607.897 422.228 609.046C421.133 610.141 419.82 610.688 418.288 610.688ZM404.087 610.606C402.5 610.606 401.131 610.059 399.982 608.964C398.888 607.815 398.34 606.474 398.34 604.942C398.34 603.355 398.888 601.987 399.982 600.837C401.131 599.688 402.5 599.114 404.087 599.114C405.619 599.114 406.932 599.688 408.027 600.837C409.121 601.987 409.669 603.355 409.669 604.942C409.669 606.474 409.121 607.815 408.027 608.964C406.932 610.059 405.619 610.606 404.087 610.606ZM425.526 646.888L426.347 635.478C430.889 635.478 434.528 635.451 437.265 635.396C440.056 635.341 442.217 635.232 443.75 635.068C445.337 634.849 446.513 634.603 447.279 634.329C448.045 634.001 448.702 633.645 449.249 633.262C449.906 632.769 450.453 632.113 450.891 631.292C451.384 630.416 451.767 629.267 452.04 627.844C452.314 626.421 452.451 624.643 452.451 622.508C452.451 619.827 452.205 617.583 451.712 615.777C451.274 613.917 450.618 612.521 449.742 611.591C448.921 610.661 447.909 610.195 446.705 610.195C445.829 610.195 445.008 610.496 444.242 611.098C443.476 611.646 442.847 612.412 442.354 613.397C441.862 614.382 441.615 615.504 441.615 616.762C441.615 617.474 441.807 618.103 442.19 618.65C442.573 619.198 443.175 619.608 443.996 619.882C444.817 620.155 445.856 620.292 447.115 620.292C448.319 620.292 449.578 620.155 450.891 619.882C452.259 619.553 453.518 619.116 454.667 618.568L454.996 628.337C454.12 628.939 453.108 629.486 451.958 629.978C450.809 630.471 449.578 630.854 448.264 631.128C447.006 631.347 445.72 631.456 444.406 631.456C441.506 631.456 438.989 631.073 436.854 630.307C434.775 629.486 433.16 628.173 432.011 626.367C430.862 624.561 430.287 622.098 430.287 618.979C430.287 616.571 430.698 614.19 431.519 611.837C432.339 609.429 433.516 607.268 435.048 605.352C436.581 603.382 438.387 601.822 440.466 600.673C442.546 599.469 444.844 598.867 447.361 598.867C451.083 598.867 454.147 599.962 456.555 602.151C459.018 604.285 460.824 607.185 461.973 610.852C463.177 614.464 463.779 618.486 463.779 622.919C463.779 626.804 463.204 630.197 462.055 633.098C460.906 635.943 459.538 638.187 457.951 639.829C456.637 641.197 455.132 642.346 453.436 643.277C451.739 644.207 449.66 644.946 447.197 645.493C444.789 645.986 441.807 646.341 438.25 646.56C434.747 646.779 430.506 646.888 425.526 646.888ZM447.197 591.233C445.501 591.233 444.051 590.659 442.847 589.509C441.697 588.36 441.123 586.937 441.123 585.241C441.123 583.544 441.697 582.094 442.847 580.89C444.051 579.686 445.501 579.084 447.197 579.084C448.839 579.084 450.234 579.686 451.384 580.89C452.588 582.094 453.19 583.544 453.19 585.241C453.19 586.937 452.588 588.36 451.384 589.509C450.234 590.659 448.839 591.233 447.197 591.233ZM473.538 646.478L471.814 586.39H483.306L485.03 646.478H473.538Z" fill="url(#paint0_linear_468_1236)"/>
<path d="M472.105 694.19L463.063 672.204C469.328 670.076 475.061 667.594 480.262 664.757C485.581 661.92 490.191 658.788 494.092 655.36C497.993 651.932 501.007 648.208 503.135 644.189C505.262 640.052 506.326 635.619 506.326 630.891C506.326 625.926 505.203 620.489 502.957 614.579C500.711 608.668 497.993 602.64 494.801 596.493L518.028 585.323C520.156 588.987 521.988 592.947 523.525 597.202C525.18 601.34 526.539 605.063 527.603 608.373C528.667 611.683 529.376 613.928 529.731 615.111C531.386 620.784 533.632 624.567 536.469 626.458C539.424 628.35 544.152 629.295 550.653 629.295C555.145 629.295 558.337 630.477 560.228 632.841C562.237 635.087 563.242 637.924 563.242 641.352C563.242 645.017 562.001 648.09 559.519 650.572C557.036 652.936 553.49 654.118 548.88 654.118C544.034 654.118 539.778 653.409 536.114 651.991C532.45 650.572 529.494 648.504 527.249 645.785C525.121 643.066 523.761 639.875 523.17 636.21L529.731 639.934C529.022 646.199 526.953 652.109 523.525 657.665C520.215 663.339 515.901 668.54 510.581 673.268C505.262 677.996 499.293 682.133 492.673 685.679C486.054 689.226 479.198 692.063 472.105 694.19ZM549.092 654.118L550.865 629.295H576.22C578.703 629.295 580.89 629.177 582.781 628.941C584.672 628.586 586.209 628.054 587.391 627.345C588.691 626.636 589.637 625.749 590.228 624.685C590.819 623.621 591.114 622.38 591.114 620.962C591.114 619.543 590.346 617.297 588.809 614.224C587.391 611.032 584.258 607.191 579.412 602.699C576.811 600.335 573.974 597.852 570.901 595.252C567.946 592.533 565.109 589.992 562.39 587.628C559.672 585.145 557.426 582.959 555.653 581.067C553.879 579.176 552.993 577.817 552.993 576.989C552.993 575.216 553.111 573.266 553.348 571.138C553.584 569.01 553.939 567.06 554.411 565.287C555.002 563.514 555.771 562.213 556.716 561.386C558.726 559.495 561.681 557.308 565.582 554.826C569.601 552.225 574.388 549.447 579.944 546.492C585.5 543.419 591.705 540.227 598.561 536.917C605.535 533.489 612.982 530.061 620.902 526.633L631.009 548.265C624.508 551.102 618.361 553.88 612.569 556.599C606.777 559.199 601.339 561.8 596.256 564.4C591.292 566.883 586.682 569.365 582.426 571.847C578.289 574.211 574.625 576.575 571.433 578.94L573.738 565.819C583.786 573.502 591.764 580.417 597.675 586.564C603.703 592.711 608.195 598.207 611.15 603.054C614.105 607.782 616.056 612.037 617.001 615.82C617.947 619.484 618.42 622.735 618.42 625.572C618.42 628.409 617.711 631.482 616.292 634.792C614.992 637.983 612.569 641.057 609.023 644.012C605.595 646.967 600.748 649.39 594.483 651.282C588.218 653.173 580.18 654.118 570.369 654.118H549.092Z" fill="url(#paint1_linear_468_1236)"/>
<path d="M126.847 478.692C126.847 474.28 127.231 469.102 127.998 463.156C128.765 457.21 130.204 450.497 132.313 443.017C134.423 435.345 137.588 426.81 141.807 417.412L177.194 429.783C175.084 435.729 173.262 441.195 171.728 446.182C170.193 450.977 169.043 455.484 168.275 459.704C167.508 463.731 167.125 467.759 167.125 471.787C167.125 478.116 168.467 483.774 171.152 488.761C174.029 493.939 178.153 498.255 183.523 501.707C188.894 505.351 195.415 508.133 203.087 510.051C210.95 511.968 219.965 512.927 230.13 512.927C240.679 512.927 250.077 512.448 258.325 511.489C266.764 510.53 273.86 509.092 279.614 507.174C285.56 505.256 290.067 502.762 293.136 499.693C296.205 496.816 297.739 493.46 297.739 489.624C297.739 487.898 297.068 486.268 295.725 484.733C294.574 483.199 292.56 481.569 289.683 479.842C286.998 478.116 283.354 476.294 278.751 474.376C274.34 472.458 268.969 470.348 262.64 468.047L272.134 427.482C280.381 430.934 288.149 434.003 295.437 436.688C302.918 439.181 310.014 441.291 316.727 443.017C323.44 444.552 329.769 445.798 335.715 446.757C341.661 447.524 347.223 447.908 352.401 447.908C359.69 447.908 364.868 449.826 367.937 453.662C371.006 457.306 372.54 461.909 372.54 467.471C372.54 473.417 370.526 478.404 366.499 482.432C362.471 486.268 356.813 488.186 349.524 488.186C347.99 488.186 346.456 488.186 344.921 488.186C343.579 488.186 342.14 488.186 340.606 488.186C339.263 488.186 337.825 488.186 336.29 488.186C336.674 490.104 336.866 491.734 336.866 493.076C336.866 494.611 336.866 496.049 336.866 497.392C336.866 503.721 334.66 510.146 330.249 516.668C326.029 523.189 319.412 529.23 310.398 534.792C301.383 540.355 289.875 544.766 275.874 548.026C262.065 551.479 245.57 553.205 226.39 553.205C205.676 553.205 187.839 550.52 172.879 545.15C158.11 539.971 146.698 531.82 138.643 520.695C130.779 509.763 126.847 495.762 126.847 478.692ZM254.584 619.951C249.022 619.951 244.227 617.937 240.2 613.909C236.364 610.073 234.446 605.47 234.446 600.1C234.446 594.537 236.364 589.743 240.2 585.715C244.227 581.687 249.022 579.673 254.584 579.673C259.955 579.673 264.558 581.687 268.394 585.715C272.23 589.743 274.148 594.537 274.148 600.1C274.148 605.47 272.23 610.073 268.394 613.909C264.558 617.937 259.955 619.951 254.584 619.951ZM204.813 619.951C199.251 619.951 194.456 617.937 190.428 613.909C186.592 610.073 184.674 605.47 184.674 600.1C184.674 594.537 186.592 589.743 190.428 585.715C194.456 581.687 199.251 579.673 204.813 579.673C210.183 579.673 214.786 581.687 218.622 585.715C222.458 589.743 224.376 594.537 224.376 600.1C224.376 605.47 222.458 610.073 218.622 613.909C214.786 617.937 210.183 619.951 204.813 619.951ZM349.468 488.186L352.345 447.908C356.757 447.908 360.497 446.853 363.565 444.743C366.826 442.442 370.182 438.702 373.635 433.523C377.087 428.153 381.115 420.96 385.718 411.946C391.472 400.438 397.418 391.424 403.555 384.902C409.885 378.381 416.31 373.778 422.831 371.093C429.544 368.216 436.257 366.778 442.97 366.778C451.409 366.778 459.272 368.6 466.561 372.244C473.849 375.888 480.178 380.875 485.549 387.204C490.919 393.342 495.043 400.438 497.92 408.494C500.989 416.357 502.523 424.509 502.523 432.948C502.523 443.113 500.317 452.319 495.906 460.567C491.686 468.622 485.741 475.047 478.069 479.842C470.589 484.445 461.958 486.747 452.176 486.747C443.929 486.747 434.339 485.309 423.406 482.432C412.474 479.555 400.966 473.513 388.883 464.307L403.555 429.495C412.186 435.441 420.242 439.757 427.722 442.442C435.394 445.127 441.723 446.47 446.71 446.47C450.546 446.47 453.71 446.086 456.204 445.319C458.697 444.552 460.519 443.305 461.67 441.579C462.821 439.852 463.396 437.551 463.396 434.674C463.396 430.646 462.437 426.523 460.519 422.303C458.601 418.083 456.012 414.535 452.751 411.658C449.683 408.589 446.038 407.055 441.819 407.055C437.791 407.055 434.339 408.589 431.462 411.658C428.777 414.535 426.091 418.755 423.406 424.317C420.913 429.687 417.844 436.017 414.2 443.305C409.789 452.128 405.473 459.512 401.254 465.458C397.034 471.211 392.527 475.815 387.732 479.267C383.129 482.528 377.662 484.829 371.333 486.172C365.196 487.514 357.907 488.186 349.468 488.186ZM510.001 552.917L495.328 516.092C511.823 510.338 525.153 504.009 535.318 497.104C545.675 490.199 553.251 482.815 558.046 474.952C563.033 467.088 565.526 458.936 565.526 450.497C565.526 445.127 564.759 439.565 563.225 433.811C561.69 427.865 559.485 421.632 556.608 415.111C553.922 408.589 550.662 401.781 546.826 394.684L584.514 376.559C591.227 389.41 596.406 401.685 600.05 413.384C603.886 425.084 605.804 436.017 605.804 446.182C605.804 455.58 604.557 464.594 602.064 473.225C599.762 481.856 596.118 489.912 591.131 497.392C586.336 505.064 580.103 512.256 572.431 518.969C564.759 525.682 555.745 531.82 545.387 537.382C535.03 543.136 523.235 548.314 510.001 552.917ZM573.582 347.214C567.636 347.214 562.553 345.2 558.334 341.173C554.306 337.145 552.292 332.158 552.292 326.212C552.292 320.267 554.306 315.184 558.334 310.964C562.553 306.745 567.636 304.635 573.582 304.635C579.336 304.635 584.226 306.745 588.254 310.964C592.474 315.184 594.584 320.267 594.584 326.212C594.584 332.158 592.474 337.145 588.254 341.173C584.226 345.2 579.336 347.214 573.582 347.214ZM639.516 552.917L631.173 512.64C644.79 510.914 656.682 508.804 666.847 506.31C677.012 504.009 685.547 500.748 692.452 496.529C699.357 492.309 704.535 486.555 707.988 479.267C711.44 471.787 713.166 462.197 713.166 450.497C713.166 439.181 711.44 430.167 707.988 423.454C704.535 416.741 699.932 413.384 694.178 413.384C690.151 413.384 686.794 414.823 684.109 417.7C681.424 420.385 679.41 423.646 678.067 427.482C676.917 431.126 676.341 434.386 676.341 437.263C676.341 438.989 676.821 440.811 677.78 442.729C678.739 444.647 680.848 446.278 684.109 447.62C687.37 448.963 692.452 449.73 699.357 449.922C706.453 450.114 716.043 449.442 728.127 447.908H776.46C783.748 447.908 788.926 449.826 791.995 453.662C795.256 457.306 796.886 461.909 796.886 467.471C796.886 473.417 794.872 478.404 790.844 482.432C786.817 486.268 781.063 488.186 773.583 488.186H694.466C682.383 488.186 672.026 486.747 663.395 483.87C654.764 480.993 648.147 476.39 643.544 470.061C638.941 463.54 636.639 454.909 636.639 444.168C636.639 435.537 638.077 426.906 640.954 418.275C644.023 409.644 648.243 401.781 653.613 394.684C658.983 387.396 665.217 381.642 672.313 377.422C679.602 373.011 687.465 370.805 695.905 370.805C707.412 370.805 717.482 374.354 726.113 381.45C734.744 388.547 741.457 397.945 746.251 409.644C751.238 421.344 753.732 434.099 753.732 447.908C753.732 469.581 749.128 487.994 739.922 503.146C730.716 518.298 717.578 529.997 700.508 538.245C683.438 546.684 663.107 551.575 639.516 552.917ZM773.99 488.186L776.866 447.908H818.007C822.035 447.908 825.583 447.716 828.652 447.333C831.721 446.757 834.214 445.894 836.132 444.743C838.242 443.593 839.776 442.154 840.735 440.428C841.694 438.702 842.174 436.688 842.174 434.386C842.174 432.085 840.927 428.441 838.434 423.454C836.132 418.275 831.049 412.042 823.186 404.753C818.966 400.918 814.363 396.89 809.376 392.67C804.581 388.259 799.978 384.135 795.567 380.299C791.155 376.272 787.511 372.723 784.634 369.654C781.757 366.586 780.319 364.38 780.319 363.037C780.319 360.16 780.511 356.996 780.894 353.543C781.278 350.091 781.853 346.926 782.62 344.049C783.579 341.173 784.826 339.063 786.36 337.72C789.621 334.651 794.416 331.103 800.745 327.075C807.266 322.856 815.034 318.349 824.049 313.554C833.063 308.567 843.133 303.388 854.257 298.018C865.573 292.456 877.656 286.894 890.507 281.332L906.905 316.431C896.357 321.034 886.383 325.541 876.985 329.952C867.587 334.172 858.764 338.391 850.517 342.611C842.461 346.639 834.981 350.667 828.076 354.694C821.364 358.53 815.418 362.366 810.239 366.202L813.979 344.913C830.282 357.379 843.229 368.6 852.818 378.573C862.6 388.547 869.888 397.465 874.683 405.329C879.478 413.001 882.643 419.906 884.177 426.043C885.712 431.989 886.479 437.263 886.479 441.866C886.479 446.47 885.328 451.456 883.027 456.827C880.917 462.005 876.985 466.992 871.231 471.787C865.669 476.582 857.805 480.514 847.64 483.582C837.475 486.651 824.432 488.186 808.513 488.186H773.99Z" fill="#28A0F0"/>
</g>
<defs>
<filter id="filter0_ii_468_1236" x="126.847" y="277.494" width="781.593" height="419.767" filterUnits="userSpaceOnUse" color-interpolation-filters="sRGB">
<feFlood flood-opacity="0" result="BackgroundImageFix"/>
<feBlend mode="normal" in="SourceGraphic" in2="BackgroundImageFix" result="shape"/>
<feColorMatrix in="SourceAlpha" type="matrix" values="0 0 0 0 0 0 0 0 0 0 0 0 0 0 0 0 0 0 127 0" result="hardAlpha"/>
<feOffset dy="3.07031"/>
<feGaussianBlur stdDeviation="3.07031"/>
<feComposite in2="hardAlpha" operator="arithmetic" k2="-1" k3="1"/>
<feColorMatrix type="matrix" values="0 0 0 0 1 0 0 0 0 1 0 0 0 0 1 0 0 0 0.24 0"/>
<feBlend mode="normal" in2="shape" result="effect1_innerShadow_468_1236"/>
<feColorMatrix in="SourceAlpha" type="matrix" values="0 0 0 0 0 0 0 0 0 0 0 0 0 0 0 0 0 0 127 0" result="hardAlpha"/>
<feOffset dx="1.53516" dy="-3.83789"/>
<feGaussianBlur stdDeviation="2.53301"/>
<feComposite in2="hardAlpha" operator="arithmetic" k2="-1" k3="1"/>
<feColorMatrix type="matrix" values="0 0 0 0 0 0 0 0 0 0 0 0 0 0 0 0 0 0 0.28 0"/>
<feBlend mode="normal" in2="effect1_innerShadow_468_1236" result="effect2_innerShadow_468_1236"/>
</filter>
<linearGradient id="paint0_linear_468_1236" x1="381.597" y1="574.478" x2="381.597" y2="659.041" gradientUnits="userSpaceOnUse">
<stop stop-color="#EEF4F7"/>
<stop offset="1" stop-color="#99C0D8"/>
</linearGradient>
<linearGradient id="paint1_linear_468_1236" x1="549.438" y1="498.232" x2="549.438" y2="680.888" gradientUnits="userSpaceOnUse">
<stop stop-color="#EEF4F7"/>
<stop offset="1" stop-color="#99C0D8"/>
</linearGradient>
</defs>
</svg>
