<svg width="1024" height="1024" viewBox="0 0 1024 1024" fill="none" xmlns="http://www.w3.org/2000/svg">
<g filter="url(#filter0_ii_468_1236)">
<path d="M279.193 290H206.895L231.591 306.822V335.455H69.455L59.4334 355.856V446.767L69.455 459.652H108.826L115.626 446.767V397.017L126.006 389.5H403.032L414.128 397.017V446.767L424.149 459.652H465.309L473.899 446.767V355.856L460.299 335.455H294.942V303.959L279.193 290Z" fill="#28A0F0"/>
<path d="M161.081 429.587L146.765 446.767L141.754 466.094L121.711 482.201H233.022V535.888H65.8758L58.3596 546.267V571.679L73.0342 589.575H233.022C234.096 617.015 235.313 673.184 231.591 678.338C227.868 683.492 156.786 681.44 121.711 679.77C130.539 683.945 148.697 692.941 150.702 695.518C152.706 698.095 162.036 724.271 166.45 737.036C164.541 737.752 174.897 738.468 231.591 735.605C288.284 732.741 297.447 697.427 294.942 680.128V588.501H448.487L462.088 580.985L472.826 546.625L486.426 534.098H294.942V482.558H366.883L377.262 467.168V446.767L396.948 429.587H161.081Z" fill="#28A0F0"/>
<path d="M810.586 290.301H737.927L725.042 307.299V336.232H570.777L560.755 356.847V448.709L570.777 461.728H610.149L616.949 448.709V398.438L627.329 390.843H895.772L906.867 398.438V448.709L916.889 461.728H958.05L966.64 448.709V356.847L953.039 336.232H788.395V304.406L810.586 290.301Z" fill="#28A0F0"/>
<path fill-rule="evenodd" clip-rule="evenodd" d="M775.867 410.372H706.43L734.348 429.541V471.493H623.75L601.916 492.831V722.125L590.821 737.676H652.384L658.468 731.166V722.125H866.78V731.166L875.012 737.676H939.796L927.269 722.125V492.831L901.498 471.493H788.395V429.541L775.867 410.372ZM657.752 528.274L665.985 519.956L734.348 519.956L743.296 528.274V571.42L734.348 581.185L665.985 581.185L657.752 571.42V528.274ZM788.395 519.956L780.162 528.274V571.42L788.395 581.185L858.548 581.185L867.496 571.42V528.274L858.548 519.956L788.395 519.956ZM779.804 628.816L788.037 620.498L858.19 620.498L867.138 628.816V676.95L858.19 686.715L788.037 686.715L779.804 676.95V628.816ZM665.627 620.498L657.395 628.816V676.95L665.627 686.715L733.99 686.715L742.938 676.95V628.816L733.99 620.498L665.627 620.498Z" fill="#28A0F0"/>
<path d="M429.97 615.231H315.217L323.666 622.091V628.951L329.441 634.461H368.477V711.605H319.067L315.217 718.465V723.975L307.302 729.935H453.608L445.694 723.975V718.465L440.239 711.605H389.76V634.461H432.539L437.78 628.951V622.091L429.97 615.231Z" fill="url(#paint0_linear_468_1236)"/>
<path d="M489.806 601.479H470.015L474.513 606.652V616.323L436.73 615.423L442.69 621.158V629.029L446.175 632.853H474.288V640.387L470.015 644.435H497.34L493.404 640.387V632.853H527.364V640.387L523.203 644.435H549.966L545.805 640.387V632.853H572.793L576.954 629.029V620.146L582.239 615.423H545.805V606.652L551.09 601.479H530.287L527.364 606.652V615.423H493.404V606.652L489.806 601.479Z" fill="url(#paint1_linear_468_1236)"/>
<path d="M545.805 652.869H445.92L455.141 658.041V664.451L463.268 669.848H511.396C500.526 676.483 478.088 690.337 475.3 692.676C471.814 695.599 461.189 700.577 459.894 715.278C458.32 733.157 480.36 737.618 492.504 737.768H552.102C555.701 737.768 560.199 737.205 568.295 732.82C574.772 729.311 577.066 715.765 577.403 709.43L573.917 702.234L558.062 690.539C559.037 692.676 561.031 697.353 561.211 698.973C561.436 700.997 559.187 713.479 557.387 717.189C555.948 720.158 551.69 720.6 549.741 720.45C534.036 720.525 500.601 720.63 492.504 720.45C482.384 720.226 478.561 718.314 478.336 715.278C478.111 712.242 477.774 712.129 486.207 704.258C492.954 697.961 535.872 675.846 556.488 665.575L559.187 659.953L553.677 655.343L561.998 646.684L545.805 652.869Z" fill="url(#paint2_linear_468_1236)"/>
</g>
<defs>
<filter id="filter0_ii_468_1236" x="58.3596" y="283.988" width="910.686" height="458.59" filterUnits="userSpaceOnUse" color-interpolation-filters="sRGB">
<feFlood flood-opacity="0" result="BackgroundImageFix"/>
<feBlend mode="normal" in="SourceGraphic" in2="BackgroundImageFix" result="shape"/>
<feColorMatrix in="SourceAlpha" type="matrix" values="0 0 0 0 0 0 0 0 0 0 0 0 0 0 0 0 0 0 127 0" result="hardAlpha"/>
<feOffset dy="4.8099"/>
<feGaussianBlur stdDeviation="4.8099"/>
<feComposite in2="hardAlpha" operator="arithmetic" k2="-1" k3="1"/>
<feColorMatrix type="matrix" values="0 0 0 0 1 0 0 0 0 1 0 0 0 0 1 0 0 0 0.24 0"/>
<feBlend mode="normal" in2="shape" result="effect1_innerShadow_468_1236"/>
<feColorMatrix in="SourceAlpha" type="matrix" values="0 0 0 0 0 0 0 0 0 0 0 0 0 0 0 0 0 0 127 0" result="hardAlpha"/>
<feOffset dx="2.40495" dy="-6.01238"/>
<feGaussianBlur stdDeviation="3.96817"/>
<feComposite in2="hardAlpha" operator="arithmetic" k2="-1" k3="1"/>
<feColorMatrix type="matrix" values="0 0 0 0 0 0 0 0 0 0 0 0 0 0 0 0 0 0 0.28 0"/>
<feBlend mode="normal" in2="effect1_innerShadow_468_1236" result="effect2_innerShadow_468_1236"/>
</filter>
<linearGradient id="paint0_linear_468_1236" x1="380.455" y1="615.231" x2="380.455" y2="729.935" gradientUnits="userSpaceOnUse">
<stop stop-color="white"/>
<stop offset="1" stop-color="#79829B"/>
</linearGradient>
<linearGradient id="paint1_linear_468_1236" x1="509.484" y1="601.479" x2="509.484" y2="737.768" gradientUnits="userSpaceOnUse">
<stop stop-color="white"/>
<stop offset="1" stop-color="#79829B"/>
</linearGradient>
<linearGradient id="paint2_linear_468_1236" x1="509.484" y1="601.479" x2="509.484" y2="737.768" gradientUnits="userSpaceOnUse">
<stop stop-color="white"/>
<stop offset="1" stop-color="#79829B"/>
</linearGradient>
</defs>
</svg>
