<svg width="1024" height="1024" viewBox="0 0 1024 1024" fill="none" xmlns="http://www.w3.org/2000/svg">
<g filter="url(#filter0_ii_468_1236)">
<path d="M351.469 580.891L368.949 583.914H456.451L461.166 577.181L472.15 587.126H485.276L476.526 596.028C471.893 606.923 466.334 625.275 456.451 637.064C446.569 648.854 418.78 661.549 403.338 666.714L386.793 662.225L376.241 656.368V649.755C387.994 647.362 417.333 643.148 432.774 632.719C448.216 622.289 448.816 611.294 450.275 602.981H368.949L356.873 600.336V587.126L351.469 580.891Z" fill="url(#paint0_linear_468_1236)"/>
<path d="M492.432 545.976L508.909 549.912H591.388L595.832 541.146L606.186 554.095H618.558L610.31 565.687C605.943 579.874 600.703 608.464 591.388 623.816C582.073 639.168 552.562 652.597 538.007 659.322L522.411 653.477L514.552 646.735V638.124C525.63 635.008 554.515 627.045 569.07 613.465C583.625 599.884 584.191 585.566 585.566 574.741H508.909L497.527 571.297V554.095L492.432 545.976Z" fill="url(#paint1_linear_468_1236)"/>
<path d="M485.543 550.155L478.654 543.266H342.99L354.118 549.625V556.514L357.828 562.343H462.226L466.995 567.113H485.543V550.155Z" fill="url(#paint2_linear_468_1236)"/>
<path d="M659.497 543.474H621.737L635.548 550.072V656.128L631.394 666.148H667.842L656.075 658.816V605.788L709.593 624.116L715.702 622.161L720.589 612.142L731.964 610.037L655.342 583.062V550.072L659.497 543.474Z" fill="url(#paint3_linear_468_1236)"/>
<path d="M53.1172 323.413L75.5294 342.393V355.863L93.0077 369.333H270.918L283.561 453.828L270.918 537.097H93.4715L71.2193 554.853L66.9093 572.609L53.1172 591.59L90.4977 577.451L270.918 572.609V591.59L307.697 603.223L319.765 584.243V352.866L342.193 333.209H313.535L53.1172 323.413Z" fill="#28A0F0"/>
<path d="M464.955 360.25L351.901 355.841L367.332 367.808V384.813H452.988C449.944 388.802 440.076 403.204 424.961 428.901C409.845 454.598 365.337 474.878 344.973 481.806L350.939 502.358L367.332 506.999C374.155 502.8 390.005 493.017 398.823 487.475C407.64 481.932 428.95 462.701 438.502 453.779L488.258 506.999L512.042 497.718L514.363 477.497L505.893 481.806C487.838 466.27 452.988 433.939 458.027 428.901C463.065 423.862 480.28 392.581 488.258 377.57H501.799L474.087 355.841L464.955 360.25Z" fill="#28A0F0"/>
<path d="M605.522 367.112C592.009 364.109 558.451 358.383 540.551 355.841L533.921 361.808V377.719L540.551 382.029C550.937 383.355 576.086 386.869 593.589 390.316C611.091 393.764 647.29 404.57 663.201 409.542L667.842 390.316L663.201 382.029C651.268 379.156 620.439 370.427 605.522 367.112Z" fill="#28A0F0"/>
<path d="M596.241 481.807C582.727 478.804 549.169 473.078 531.269 470.536L524.639 476.503V492.414L531.269 496.724C541.656 498.05 566.804 501.563 584.307 505.011C601.809 508.458 638.008 519.265 653.919 524.237L658.56 505.011L653.919 496.724C641.986 493.851 611.157 485.122 596.241 481.807Z" fill="#28A0F0"/>
<path d="M595.86 420.813C584.42 417.81 556.012 412.083 540.859 409.542L535.247 415.509V431.42L540.859 435.73C549.652 437.055 570.941 440.569 585.758 444.017C600.574 447.464 631.217 458.271 644.687 463.243L648.616 444.017L644.687 435.73C634.585 432.857 608.488 424.127 595.86 420.813Z" fill="#28A0F0"/>
<path d="M734.755 385.77C774.154 352.937 786.545 331.83 786.936 316H854.562L815.079 330.071V346.488H908.301L931.167 322.486L932.926 344.729L964 367.595C960.873 370.917 944.652 379.321 944.652 379.321C944.652 379.321 897.748 486.615 861.397 527.656C833.22 559.469 781.532 581.153 746.158 595.811L709.807 575.29V559.46C737.168 546.952 786.259 533.664 820.355 500.1C857.879 463.163 880.745 410.395 885.435 385.77H791.626C784.004 394.369 762.311 409.809 749.999 420.949C741.912 428.266 727.719 436.779 703.681 450.264L670.847 444.987L667.33 432.088C675.929 425.053 695.355 418.603 734.755 385.77Z" fill="#28A0F0"/>
</g>
<defs>
<filter id="filter0_ii_468_1236" x="53.1172" y="313.01" width="913.873" height="361.091" filterUnits="userSpaceOnUse" color-interpolation-filters="sRGB">
<feFlood flood-opacity="0" result="BackgroundImageFix"/>
<feBlend mode="normal" in="SourceGraphic" in2="BackgroundImageFix" result="shape"/>
<feColorMatrix in="SourceAlpha" type="matrix" values="0 0 0 0 0 0 0 0 0 0 0 0 0 0 0 0 0 0 127 0" result="hardAlpha"/>
<feOffset dy="8.79452"/>
<feGaussianBlur stdDeviation="3.6937"/>
<feComposite in2="hardAlpha" operator="arithmetic" k2="-1" k3="1"/>
<feColorMatrix type="matrix" values="0 0 0 0 1 0 0 0 0 1 0 0 0 0 1 0 0 0 0.21 0"/>
<feBlend mode="normal" in2="shape" result="effect1_innerShadow_468_1236"/>
<feColorMatrix in="SourceAlpha" type="matrix" values="0 0 0 0 0 0 0 0 0 0 0 0 0 0 0 0 0 0 127 0" result="hardAlpha"/>
<feOffset dx="4.39726" dy="-5.27671"/>
<feGaussianBlur stdDeviation="1.49507"/>
<feComposite in2="hardAlpha" operator="arithmetic" k2="-1" k3="1"/>
<feColorMatrix type="matrix" values="0 0 0 0 0 0 0 0 0 0 0 0 0 0 0 0 0 0 0.07 0"/>
<feBlend mode="normal" in2="effect1_innerShadow_468_1236" result="effect2_innerShadow_468_1236"/>
</filter>
<linearGradient id="paint0_linear_468_1236" x1="418.372" y1="577.181" x2="418.372" y2="666.714" gradientUnits="userSpaceOnUse">
<stop stop-color="#EEF4F7"/>
<stop offset="1" stop-color="#99C0D8"/>
</linearGradient>
<linearGradient id="paint1_linear_468_1236" x1="555.495" y1="541.146" x2="555.495" y2="659.322" gradientUnits="userSpaceOnUse">
<stop stop-color="#EEF4F7"/>
<stop offset="1" stop-color="#99C0D8"/>
</linearGradient>
<linearGradient id="paint2_linear_468_1236" x1="414.266" y1="543.266" x2="414.266" y2="567.113" gradientUnits="userSpaceOnUse">
<stop stop-color="#EEF4F7"/>
<stop offset="1" stop-color="#99C0D8"/>
</linearGradient>
<linearGradient id="paint3_linear_468_1236" x1="676.851" y1="543.474" x2="676.851" y2="666.147" gradientUnits="userSpaceOnUse">
<stop stop-color="#EEF4F7"/>
<stop offset="1" stop-color="#99C0D8"/>
</linearGradient>
</defs>
</svg>
