<svg width="1024" height="1024" viewBox="0 0 1024 1024" fill="none" xmlns="http://www.w3.org/2000/svg">
<g filter="url(#filter0_ii_468_1236)">
<path d="M292.123 639.652C288.187 639.485 284.653 638.869 281.521 637.805C278.387 636.796 275.71 635.34 273.49 633.438C271.27 631.536 269.588 629.219 268.445 626.487C267.353 623.811 266.882 620.724 267.03 617.225C267.084 615.967 267.256 614.495 267.546 612.81C267.837 611.124 268.328 609.228 269.02 607.121C269.715 604.96 270.72 602.565 272.037 599.937L281.975 603.892C281.301 605.561 280.716 607.097 280.218 608.5C279.723 609.849 279.34 611.119 279.07 612.313C278.803 613.452 278.645 614.596 278.596 615.744C278.505 617.876 278.914 619.865 279.821 621.711C280.729 623.557 282.254 625.046 284.397 626.178C286.538 627.364 289.385 628.033 292.939 628.184C296.219 628.323 298.969 628.057 301.189 627.384C303.406 626.766 305.171 625.828 306.485 624.569C307.796 623.365 308.76 621.927 309.379 620.255C309.998 618.583 310.349 616.763 310.433 614.795C310.498 613.264 310.379 611.534 310.078 609.604C309.831 607.676 309.427 605.578 308.866 603.308C308.308 600.984 307.672 598.547 306.958 595.997L318.566 593.532C319.196 596.735 319.693 599.221 320.057 600.99C320.474 602.76 320.801 604.089 321.038 604.975C321.515 606.638 322.117 607.924 322.846 608.831C323.631 609.686 324.51 610.271 325.483 610.586C326.51 610.904 327.652 611.089 328.91 611.143C329.949 611.187 330.912 611.063 331.801 610.772C332.69 610.482 333.512 609.832 334.266 608.823C335.078 607.762 335.833 606.123 336.529 603.907C337.226 601.691 337.904 598.625 338.563 594.709L349.316 596.891C349.044 598.14 348.768 599.47 348.489 600.882C348.21 602.294 347.962 603.626 347.744 604.876C347.529 606.072 347.405 607.053 347.373 607.818C347.343 608.529 347.506 609.193 347.863 609.811C348.275 610.431 349.02 610.956 350.097 611.385C351.174 611.814 352.724 612.072 354.747 612.157C357.263 612.264 359.116 611.823 360.309 610.833C361.558 609.79 362.229 608.175 362.322 605.988C362.375 604.731 362.405 603.39 362.41 601.966C362.418 600.488 362.379 598.843 362.291 597.031C362.261 595.168 362.131 593.054 361.903 590.689L372.518 590.318C372.739 595.421 373.06 599.488 373.479 602.518C373.898 605.549 374.512 607.848 375.322 609.416C376.189 610.932 377.323 611.966 378.723 612.518C380.126 613.016 381.894 613.31 384.026 613.401C386.104 613.489 387.557 614.098 388.385 615.229C389.271 616.307 389.68 617.639 389.612 619.225C389.54 620.92 388.906 622.317 387.709 623.416C386.514 624.461 384.851 624.938 382.719 624.848C380.422 624.75 378.221 624.355 376.114 623.663C374.007 622.971 372.166 621.825 370.591 620.225C369.072 618.572 367.964 616.306 367.264 613.428L370.36 614.053C369.524 616.975 368.227 619.138 366.469 620.543C364.766 621.949 362.865 622.854 360.767 623.258C358.671 623.608 356.584 623.738 354.506 623.65C351.772 623.534 349.357 623.02 347.259 622.11C345.216 621.201 343.626 619.956 342.488 618.374C341.405 616.795 340.937 614.912 341.084 612.728L343.873 612.846C342.925 615.818 341.709 618.013 340.225 619.428C338.741 620.844 337.113 621.761 335.343 622.179C333.574 622.542 331.788 622.685 329.984 622.609C328.562 622.548 327.201 622.354 325.901 622.025C324.6 621.695 323.416 621.207 322.348 620.559C321.337 619.859 320.471 618.973 319.749 617.902C319.03 616.776 318.567 615.441 318.358 613.899L321.253 617.308C320.986 621.022 320.108 624.298 318.618 627.138C317.128 629.978 315.11 632.357 312.563 634.275C310.072 636.196 307.082 637.603 303.593 638.496C300.157 639.445 296.333 639.831 292.123 639.652ZM382.838 624.853L384.145 613.406C386.114 613.489 387.817 613.37 389.255 613.047C390.692 612.725 391.928 612.011 392.961 610.904C393.996 609.743 394.89 608.028 395.644 605.76C396.452 603.494 397.211 600.459 397.92 596.654L408.587 598.915C408.443 599.73 408.239 600.68 407.974 601.764C407.763 602.851 407.551 603.965 407.339 605.106C407.183 606.195 407.084 607.232 407.042 608.216C407.001 609.2 407.155 610.083 407.505 610.864C407.855 611.646 408.429 612.328 409.226 612.909C410.08 613.439 411.184 613.869 412.54 614.2C413.95 614.534 415.666 614.744 417.689 614.83C419.767 614.918 421.22 615.527 422.048 616.658C422.879 617.734 423.26 619.065 423.193 620.65C423.121 622.345 422.487 623.743 421.29 624.842C420.15 625.889 418.514 626.367 416.381 626.277C413.921 626.172 411.687 625.886 409.681 625.417C407.729 624.951 406.033 624.249 404.594 623.312C403.212 622.322 402.087 621.069 401.22 619.553C400.411 617.985 399.943 616.103 399.817 613.907L403.754 614.074C402.658 616.656 401.311 618.708 399.713 620.229C398.172 621.697 396.455 622.774 394.564 623.461C392.672 624.147 390.71 624.557 388.678 624.69C386.698 624.88 384.751 624.934 382.838 624.853ZM410.7 589.802C409.114 589.735 407.77 589.13 406.669 587.988C405.624 586.793 405.134 585.431 405.199 583.9C405.266 582.314 405.871 580.971 407.013 579.869C408.21 578.769 409.602 578.253 411.187 578.321C412.718 578.386 414.006 579.015 415.051 580.21C416.096 581.405 416.584 582.795 416.517 584.38C416.452 585.911 415.848 587.228 414.706 588.329C413.566 589.376 412.231 589.867 410.7 589.802ZM396.515 589.118C394.929 589.051 393.586 588.446 392.484 587.304C391.439 586.109 390.949 584.746 391.014 583.215C391.082 581.63 391.686 580.286 392.829 579.184C394.026 578.085 395.417 577.569 397.002 577.636C398.533 577.701 399.821 578.331 400.866 579.526C401.911 580.72 402.399 582.11 402.332 583.696C402.267 585.227 401.663 586.543 400.521 587.645C399.381 588.692 398.046 589.183 396.515 589.118ZM416.396 626.278L417.7 614.912C422.238 615.105 425.875 615.232 428.612 615.294C431.402 615.357 433.567 615.34 435.105 615.241C436.699 615.089 437.885 614.893 438.662 614.652C439.442 614.357 440.113 614.029 440.676 613.67C441.353 613.205 441.928 612.572 442.4 611.771C442.929 610.917 443.361 609.785 443.694 608.375C444.028 606.965 444.24 605.194 444.331 603.062C444.444 600.382 444.294 598.13 443.878 596.305C443.52 594.428 442.923 593.006 442.087 592.039C441.307 591.075 440.315 590.567 439.112 590.516C438.237 590.479 437.404 590.745 436.613 591.313C435.825 591.828 435.163 592.567 434.63 593.53C434.096 594.493 433.802 595.603 433.749 596.861C433.718 597.572 433.883 598.209 434.243 598.772C434.602 599.335 435.186 599.77 435.995 600.079C436.803 600.387 437.836 600.567 439.094 600.621C440.297 600.672 441.56 600.589 442.884 600.371C444.265 600.101 445.541 599.717 446.712 599.219L446.626 608.992C445.726 609.557 444.691 610.061 443.522 610.504C442.353 610.947 441.106 611.278 439.782 611.495C438.516 611.661 437.226 611.716 435.914 611.66C433.016 611.537 430.517 611.047 428.417 610.191C426.374 609.283 424.817 607.902 423.746 606.049C422.674 604.196 422.204 601.711 422.337 598.595C422.439 596.189 422.95 593.828 423.87 591.512C424.792 589.141 426.059 587.031 427.672 585.183C429.286 583.279 431.157 581.798 433.283 580.738C435.412 579.623 437.734 579.119 440.249 579.226C443.967 579.384 446.982 580.607 449.295 582.896C451.665 585.133 453.346 588.108 454.339 591.82C455.388 595.479 455.819 599.523 455.631 603.952C455.466 607.834 454.748 611.2 453.477 614.049C452.208 616.843 450.746 619.027 449.091 620.6C447.721 621.911 446.168 622.995 444.434 623.853C442.7 624.71 440.591 625.36 438.107 625.803C435.68 626.192 432.685 626.421 429.122 626.489C425.614 626.559 421.372 626.489 416.396 626.278ZM440.409 571.592C438.714 571.52 437.289 570.884 436.135 569.685C435.035 568.488 434.522 567.042 434.594 565.347C434.666 563.652 435.301 562.227 436.501 561.073C437.754 559.922 439.229 559.382 440.924 559.454C442.564 559.523 443.933 560.184 445.03 561.435C446.182 562.689 446.722 564.164 446.65 565.859C446.578 567.554 445.916 568.95 444.664 570.047C443.467 571.146 442.049 571.661 440.409 571.592ZM464.382 627.904L465.208 567.797L476.69 568.284L475.864 628.392L464.382 627.904Z" fill="url(#paint0_linear_468_1236)"/>
<path d="M460.927 675.513L452.825 653.163C459.175 651.303 465.008 649.066 470.324 646.452C475.759 643.843 480.498 640.909 484.541 637.65C488.583 634.39 491.753 630.798 494.049 626.873C496.35 622.83 497.601 618.446 497.802 613.722C498.013 608.762 497.121 603.282 495.128 597.282C493.135 591.281 490.674 585.143 487.746 578.866L511.427 568.691C513.397 572.443 515.06 576.477 516.414 580.793C517.892 584.997 519.093 588.775 520.015 592.127C520.938 595.479 521.551 597.753 521.855 598.949C523.268 604.688 525.351 608.562 528.105 610.572C530.978 612.587 535.661 613.732 542.157 614.008C546.645 614.199 549.783 615.515 551.573 617.957C553.485 620.286 554.369 623.163 554.223 626.588C554.068 630.249 552.697 633.267 550.112 635.642C547.532 637.899 543.938 638.929 539.333 638.734C534.49 638.528 530.269 637.639 526.668 636.067C523.067 634.494 520.202 632.302 518.074 629.49C516.063 626.684 514.841 623.437 514.406 619.751L520.802 623.75C519.828 629.979 517.51 635.796 513.85 641.201C510.302 646.73 505.771 651.743 500.256 656.241C494.741 660.74 488.601 664.62 481.837 667.882C475.073 671.144 468.103 673.688 460.927 675.513ZM539.544 638.743L542.369 614.017L567.701 615.093C570.181 615.198 572.371 615.173 574.271 615.017C576.175 614.743 577.733 614.276 578.944 613.618C580.273 612.964 581.256 612.119 581.891 611.081C582.527 610.043 582.875 608.816 582.935 607.398C582.995 605.981 582.323 603.705 580.918 600.569C579.636 597.32 576.669 593.349 572.018 588.656C569.52 586.183 566.791 583.583 563.831 580.854C560.994 578.013 558.267 575.353 555.651 572.876C553.04 570.281 550.889 568 549.198 566.036C547.506 564.071 546.678 562.675 546.713 561.848C546.788 560.077 546.989 558.133 547.316 556.017C547.642 553.902 548.079 551.968 548.627 550.217C549.293 548.47 550.115 547.204 551.095 546.417C553.183 544.613 556.228 542.553 560.231 540.239C564.357 537.811 569.258 535.239 574.934 532.522C580.615 529.687 586.95 526.762 593.94 523.746C601.054 520.617 608.639 517.508 616.697 514.419L625.877 536.46C619.262 539.018 613.003 541.533 607.1 544.003C601.203 546.356 595.66 548.723 590.472 551.106C585.406 553.375 580.695 555.66 576.338 557.96C572.104 560.146 568.343 562.353 565.054 564.579L567.914 551.568C577.626 559.671 585.305 566.918 590.949 573.31C596.711 579.707 600.966 585.389 603.713 590.356C606.465 595.206 608.233 599.54 609.017 603.359C609.806 607.06 610.141 610.328 610.021 613.163C609.9 615.997 609.061 619.037 607.504 622.284C606.069 625.418 603.518 628.385 599.849 631.187C596.299 633.995 591.354 636.21 585.015 637.834C578.675 639.458 570.604 640.062 560.802 639.645L539.544 638.743Z" fill="url(#paint1_linear_468_1236)"/>
<path d="M125.121 445.563C125.308 441.155 125.911 435.998 126.929 430.09C127.948 424.182 129.67 417.536 132.095 410.152C134.529 402.577 138.052 394.184 142.667 384.973L177.497 398.834C175.137 404.685 173.085 410.069 171.34 414.986C169.604 419.711 168.263 424.166 167.317 428.349C166.38 432.341 165.826 436.348 165.655 440.373C165.386 446.696 166.488 452.406 168.959 457.502C171.614 462.798 175.551 467.285 180.77 470.962C185.981 474.83 192.378 477.886 199.961 480.127C207.737 482.377 216.702 483.718 226.859 484.149C237.398 484.596 246.808 484.516 255.089 483.908C263.561 483.307 270.712 482.171 276.542 480.499C282.564 478.835 287.173 476.535 290.369 473.599C293.557 470.855 295.232 467.567 295.395 463.734C295.468 462.01 294.867 460.352 293.59 458.762C292.506 457.181 290.563 455.466 287.762 453.62C285.152 451.781 281.589 449.806 277.071 447.695C272.745 445.591 267.469 443.256 261.243 440.688L272.449 400.562C280.542 404.361 288.173 407.756 295.341 410.748C302.709 413.556 309.709 415.965 316.343 417.975C322.985 419.793 329.255 421.307 335.155 422.517C341.063 423.536 346.604 424.155 351.778 424.374C359.059 424.684 364.152 426.82 367.055 430.782C369.967 434.553 371.304 439.217 371.069 444.774C370.816 450.715 368.593 455.612 364.398 459.465C360.211 463.127 354.477 464.803 347.195 464.494C345.662 464.429 344.129 464.364 342.596 464.298C341.254 464.242 339.817 464.18 338.284 464.115C336.943 464.058 335.506 463.997 333.973 463.932C334.275 465.865 334.397 467.502 334.34 468.843C334.275 470.376 334.214 471.813 334.157 473.155C333.889 479.478 331.412 485.804 326.728 492.132C322.236 498.469 315.369 504.224 306.126 509.399C296.884 514.574 285.199 518.493 271.072 521.157C257.129 524.02 240.576 525.045 221.413 524.231C200.718 523.353 183.011 519.913 168.292 513.913C153.756 508.113 142.7 499.485 135.124 488.029C127.731 476.773 124.397 462.617 125.121 445.563ZM246.751 592.113C241.194 591.877 236.489 589.662 232.635 585.467C228.966 581.471 227.245 576.791 227.472 571.426C227.708 565.868 229.828 561.159 233.831 557.298C238.026 553.444 242.902 551.636 248.46 551.872C253.825 552.1 258.339 554.307 262 558.494C265.662 562.681 267.375 567.553 267.139 573.11C266.911 578.475 264.8 582.993 260.804 586.663C256.801 590.524 252.117 592.341 246.751 592.113ZM197.024 590.002C191.467 589.766 186.762 587.55 182.909 583.355C179.239 579.36 177.518 574.68 177.746 569.314C177.982 563.757 180.101 559.048 184.105 555.186C188.3 551.333 193.176 549.525 198.733 549.76C204.098 549.988 208.612 552.196 212.274 556.382C215.935 560.569 217.648 565.441 217.412 570.998C217.184 576.364 215.073 580.882 211.078 584.551C207.074 588.413 202.39 590.23 197.024 590.002ZM347.139 464.491L351.722 424.372C356.129 424.559 359.91 423.664 363.066 421.686C366.421 419.525 369.933 415.931 373.602 410.903C377.279 405.684 381.608 398.669 386.59 389.858C392.827 378.605 399.149 369.85 405.558 363.595C412.158 357.349 418.773 353.022 425.402 350.616C432.231 348.026 438.999 346.874 445.706 347.159C454.137 347.517 461.917 349.671 469.044 353.621C476.171 357.571 482.283 362.822 487.38 369.373C492.485 375.733 496.304 382.998 498.837 391.168C501.569 399.155 502.757 407.364 502.399 415.796C501.967 425.952 499.373 435.056 494.616 443.109C490.059 450.978 483.846 457.146 475.977 461.611C468.309 465.892 459.588 467.826 449.815 467.411C441.575 467.061 432.055 465.217 421.254 461.879C410.454 458.541 399.212 452.016 387.531 442.306L403.667 408.148C412.037 414.455 419.903 419.108 427.262 422.108C434.813 425.116 441.08 426.726 446.062 426.938C449.895 427.1 453.073 426.851 455.596 426.191C458.12 425.53 459.993 424.362 461.216 422.686C462.439 421.01 463.112 418.735 463.234 415.861C463.405 411.836 462.622 407.676 460.884 403.379C459.147 399.082 456.711 395.427 453.575 392.414C450.639 389.218 447.063 387.53 442.848 387.351C438.824 387.18 435.309 388.567 432.305 391.511C429.5 394.271 426.638 398.373 423.719 403.817C421 409.076 417.666 415.27 413.716 422.397C408.934 431.025 404.31 438.219 399.842 443.98C395.382 449.55 390.683 453.958 385.746 457.204C381.009 460.266 375.45 462.334 369.069 463.407C362.88 464.488 355.57 464.849 347.139 464.491ZM504.781 535.974L491.684 498.56C508.407 493.511 521.994 487.753 532.443 481.285C543.084 474.826 550.966 467.77 556.09 460.117C561.406 452.472 564.243 444.433 564.601 436.002C564.829 430.636 564.298 425.047 563.009 419.233C561.728 413.227 559.789 406.906 557.191 400.269C554.785 393.64 551.816 386.699 548.285 379.446L586.708 362.936C592.87 376.059 597.523 388.543 600.668 400.387C604.004 412.239 605.456 423.243 605.025 433.399C604.627 442.789 602.999 451.742 600.141 460.259C597.476 468.785 593.493 476.679 588.194 483.94C583.078 491.402 576.545 498.324 568.595 504.705C560.645 511.086 551.378 516.836 540.795 521.954C530.203 527.263 518.198 531.937 504.781 535.974ZM577.03 333.153C571.09 332.901 566.097 330.674 562.052 326.47C558.199 322.275 556.399 317.208 556.651 311.267C556.903 305.327 559.131 300.334 563.334 296.289C567.728 292.253 572.896 290.36 578.836 290.613C584.585 290.857 589.382 293.172 593.227 297.559C597.264 301.953 599.156 307.121 598.904 313.061C598.652 319.002 596.332 323.895 591.946 327.74C587.751 331.593 582.779 333.398 577.03 333.153ZM634.179 541.468L627.552 500.873C641.231 499.726 653.201 498.123 663.463 496.063C673.717 494.194 682.382 491.299 689.46 487.376C696.537 483.453 701.955 477.924 705.714 470.789C709.48 463.462 711.612 453.954 712.108 442.265C712.588 430.959 711.246 421.879 708.081 415.026C704.917 408.172 700.46 404.624 694.711 404.38C690.687 404.209 687.273 405.504 684.468 408.264C681.671 410.833 679.521 414.005 678.017 417.781C676.713 421.373 675.999 424.606 675.877 427.48C675.804 429.205 676.206 431.046 677.083 433.003C677.96 434.96 679.998 436.678 683.199 438.158C686.4 439.637 691.445 440.619 698.335 441.104C705.417 441.597 715.027 441.333 727.165 440.312L775.454 442.363C782.736 442.672 787.829 444.808 790.732 448.77C793.835 452.549 795.268 457.218 795.032 462.775C794.78 468.715 792.557 473.612 788.362 477.465C784.175 481.127 778.345 482.799 770.871 482.482L691.826 479.126C679.754 478.613 669.467 476.737 660.966 473.496C652.465 470.256 646.049 465.376 641.718 458.857C637.396 452.147 635.463 443.426 635.918 432.695C636.284 424.072 638.088 415.51 641.328 407.008C644.76 398.515 649.309 390.838 654.976 383.976C660.651 376.922 667.123 371.437 674.392 367.522C681.861 363.424 689.811 361.554 698.242 361.912C709.74 362.4 719.65 366.372 727.972 373.829C736.294 381.285 742.602 390.959 746.896 402.852C751.382 414.753 753.332 427.601 752.747 441.398C751.827 463.052 746.447 481.253 736.607 496.001C726.766 510.749 713.143 521.88 695.739 529.396C678.326 537.104 657.806 541.128 634.179 541.468ZM771.278 482.499L775.861 442.38L816.964 444.125C820.988 444.296 824.542 444.255 827.624 444.002C830.714 443.557 833.242 442.8 835.207 441.732C837.364 440.672 838.958 439.3 839.989 437.616C841.021 435.932 841.585 433.94 841.683 431.64C841.78 429.341 840.689 425.647 838.41 420.559C836.33 415.288 831.516 408.844 823.969 401.229C819.916 397.217 815.488 392.998 810.684 388.571C806.081 383.96 801.657 379.645 797.412 375.625C793.176 371.414 789.685 367.714 786.941 364.526C784.197 361.338 782.853 359.073 782.91 357.732C783.032 354.858 783.358 351.704 783.888 348.271C784.417 344.838 785.127 341.701 786.015 338.859C787.095 336.025 788.43 333.97 790.02 332.694C793.408 329.766 798.349 326.424 804.844 322.669C811.538 318.73 819.49 314.556 828.7 310.148C837.918 305.548 848.198 300.801 859.54 295.908C871.082 290.83 883.39 285.786 896.465 280.774L911.36 316.537C900.625 320.688 890.469 324.768 880.893 328.777C871.324 332.594 862.33 336.436 853.911 340.302C845.692 343.984 838.048 347.691 830.979 351.422C824.109 354.97 818.006 358.55 812.669 362.163L817.309 341.051C833.068 354.199 845.527 365.958 854.685 376.329C864.035 386.709 870.939 395.928 875.396 403.988C879.861 411.857 882.73 418.889 884.003 425.087C885.283 431.092 885.826 436.394 885.631 440.993C885.436 445.592 884.074 450.526 881.547 455.794C879.219 460.878 875.08 465.693 869.127 470.24C863.367 474.795 855.343 478.389 845.057 481.024C834.771 483.659 821.675 484.639 805.77 483.963L771.278 482.499Z" fill="#28A0F0"/>
</g>
<defs>
<filter id="filter0_ii_468_1236" x="119.129" y="244.542" width="795.255" height="440.781" filterUnits="userSpaceOnUse" color-interpolation-filters="sRGB">
<feFlood flood-opacity="0" result="BackgroundImageFix"/>
<feBlend mode="normal" in="SourceGraphic" in2="BackgroundImageFix" result="shape"/>
<feColorMatrix in="SourceAlpha" type="matrix" values="0 0 0 0 0 0 0 0 0 0 0 0 0 0 0 0 0 0 127 0" result="hardAlpha"/>
<feOffset dy="3.07031"/>
<feGaussianBlur stdDeviation="3.07031"/>
<feComposite in2="hardAlpha" operator="arithmetic" k2="-1" k3="1"/>
<feColorMatrix type="matrix" values="0 0 0 0 1 0 0 0 0 1 0 0 0 0 1 0 0 0 0.24 0"/>
<feBlend mode="normal" in2="shape" result="effect1_innerShadow_468_1236"/>
<feColorMatrix in="SourceAlpha" type="matrix" values="0 0 0 0 0 0 0 0 0 0 0 0 0 0 0 0 0 0 127 0" result="hardAlpha"/>
<feOffset dx="1.53516" dy="-3.83789"/>
<feGaussianBlur stdDeviation="2.53301"/>
<feComposite in2="hardAlpha" operator="arithmetic" k2="-1" k3="1"/>
<feColorMatrix type="matrix" values="0 0 0 0 0 0 0 0 0 0 0 0 0 0 0 0 0 0 0.28 0"/>
<feBlend mode="normal" in2="effect1_innerShadow_468_1236" result="effect2_innerShadow_468_1236"/>
</filter>
<linearGradient id="paint0_linear_468_1236" x1="375.578" y1="552.069" x2="371.991" y2="636.555" gradientUnits="userSpaceOnUse">
<stop stop-color="#EEF4F7"/>
<stop offset="1" stop-color="#99C0D8"/>
</linearGradient>
<linearGradient id="paint1_linear_468_1236" x1="546.503" y1="483.011" x2="538.755" y2="665.502" gradientUnits="userSpaceOnUse">
<stop stop-color="#EEF4F7"/>
<stop offset="1" stop-color="#99C0D8"/>
</linearGradient>
</defs>
</svg>
