<svg width="1024" height="1024" viewBox="0 0 1024 1024" fill="none" xmlns="http://www.w3.org/2000/svg">
<g filter="url(#filter0_ii_468_1236)">
<path d="M339.011 608.897L357.877 612.16H452.319L457.408 604.894L469.263 615.627H483.429L473.985 625.235C468.985 636.994 462.986 656.801 452.319 669.525C441.653 682.25 411.66 695.952 394.994 701.526L377.137 696.682L365.748 690.36V683.223C378.433 680.64 410.098 676.092 426.764 664.835C443.431 653.579 444.079 641.712 445.653 632.739H357.877L344.844 629.884V615.627L339.011 608.897Z" fill="url(#paint0_linear_468_1236)"/>
<path d="M491.153 571.214L508.936 575.462H597.956L602.753 566L613.928 579.976H627.281L618.379 592.487C613.666 607.8 608.01 638.657 597.956 655.226C587.902 671.796 556.052 686.29 540.342 693.548L523.51 687.24L515.027 679.963V670.669C526.984 667.306 558.159 658.712 573.869 644.054C589.578 629.396 590.189 613.944 591.673 602.26H508.936L496.652 598.542V579.976L491.153 571.214Z" fill="url(#paint1_linear_468_1236)"/>
<path d="M483.718 575.724L476.282 568.288H329.86L341.871 575.152V582.587L345.875 588.879H458.551L463.699 594.026H483.718V575.724Z" fill="url(#paint2_linear_468_1236)"/>
<path d="M671.466 568.513H630.712L645.619 575.634V690.101L641.135 700.915H680.473L667.774 693.002V635.769L725.535 655.55L732.128 653.44L737.403 642.626L749.681 640.355L666.982 611.24V575.634L671.466 568.513Z" fill="url(#paint3_linear_468_1236)"/>
<path d="M17 331L41.1895 351.486V366.024L60.0539 380.562H252.072L265.718 471.757L252.072 561.63H60.5545L36.5377 580.794L31.8858 599.958L17 620.444L57.3448 605.184L252.072 599.958V620.444L291.768 633L304.793 612.514V362.789L329 341.573H298.069L17 331Z" fill="#28A0F0"/>
<path d="M461.497 370.758L339.477 366L356.132 378.916V397.27H448.581C445.295 401.575 434.646 417.119 418.331 444.854C402.017 472.588 353.979 494.477 332 501.954L338.44 524.137L356.132 529.145C363.496 524.614 380.604 514.054 390.121 508.072C399.637 502.09 422.636 481.335 432.946 471.705L486.648 529.145L512.319 519.128L514.823 497.303L505.682 501.954C486.195 485.187 448.581 450.292 454.019 444.854C459.457 439.415 478.038 405.653 486.648 389.452H501.263L471.353 366L461.497 370.758Z" fill="#28A0F0"/>
<path d="M613.211 378.165C598.626 374.924 562.407 368.743 543.088 366L535.932 372.44V389.614L543.088 394.265C554.298 395.696 581.441 399.488 600.332 403.209C619.222 406.93 658.291 418.593 675.464 423.96L680.473 403.209L675.464 394.265C662.584 391.164 629.311 381.743 613.211 378.165Z" fill="#28A0F0"/>
<path d="M603.194 501.955C588.608 498.714 552.39 492.533 533.07 489.791L525.914 496.23V513.404L533.07 518.055C544.28 519.486 571.423 523.278 590.314 526.999C609.204 530.72 648.273 542.383 665.446 547.75L670.455 526.999L665.446 518.055C652.567 514.954 619.293 505.533 603.194 501.955Z" fill="#28A0F0"/>
<path d="M602.783 436.124C590.436 432.883 559.775 426.703 543.421 423.96L537.363 430.4V447.573L543.421 452.224C552.91 453.655 575.888 457.448 591.88 461.169C607.871 464.889 640.944 476.553 655.482 481.92L659.722 461.169L655.482 452.224C644.579 449.123 616.412 439.702 602.783 436.124Z" fill="#28A0F0"/>
<path d="M752.692 398.303C795.216 362.866 808.589 340.086 809.011 323H882L839.386 338.187V355.906H940.001L964.68 330L966.579 354.007L1000.12 378.686C996.742 382.272 979.235 391.342 979.235 391.342C979.235 391.342 928.611 507.145 889.377 551.441C858.965 585.776 803.179 609.18 765 625L725.766 602.852V585.766C755.297 572.267 808.28 557.925 845.081 521.699C885.58 481.833 910.259 424.881 915.322 398.303H814.074C805.847 407.584 782.434 424.248 769.145 436.271C760.417 444.168 745.099 453.357 719.154 467.911L683.717 462.216L679.92 448.294C689.201 440.701 710.168 433.74 752.692 398.303Z" fill="#28A0F0"/>
</g>
<defs>
<filter id="filter0_ii_468_1236" x="17" y="319.773" width="986.344" height="389.727" filterUnits="userSpaceOnUse" color-interpolation-filters="sRGB">
<feFlood flood-opacity="0" result="BackgroundImageFix"/>
<feBlend mode="normal" in="SourceGraphic" in2="BackgroundImageFix" result="shape"/>
<feColorMatrix in="SourceAlpha" type="matrix" values="0 0 0 0 0 0 0 0 0 0 0 0 0 0 0 0 0 0 127 0" result="hardAlpha"/>
<feOffset dy="9.49193"/>
<feGaussianBlur stdDeviation="3.98661"/>
<feComposite in2="hardAlpha" operator="arithmetic" k2="-1" k3="1"/>
<feColorMatrix type="matrix" values="0 0 0 0 1 0 0 0 0 1 0 0 0 0 1 0 0 0 0.21 0"/>
<feBlend mode="normal" in2="shape" result="effect1_innerShadow_468_1236"/>
<feColorMatrix in="SourceAlpha" type="matrix" values="0 0 0 0 0 0 0 0 0 0 0 0 0 0 0 0 0 0 127 0" result="hardAlpha"/>
<feOffset dx="4.74597" dy="-5.69516"/>
<feGaussianBlur stdDeviation="1.61363"/>
<feComposite in2="hardAlpha" operator="arithmetic" k2="-1" k3="1"/>
<feColorMatrix type="matrix" values="0 0 0 0 0 0 0 0 0 0 0 0 0 0 0 0 0 0 0.07 0"/>
<feBlend mode="normal" in2="effect1_innerShadow_468_1236" result="effect2_innerShadow_468_1236"/>
</filter>
<linearGradient id="paint0_linear_468_1236" x1="411.22" y1="604.894" x2="411.22" y2="701.526" gradientUnits="userSpaceOnUse">
<stop stop-color="#EEF4F7"/>
<stop offset="1" stop-color="#99C0D8"/>
</linearGradient>
<linearGradient id="paint1_linear_468_1236" x1="559.217" y1="566" x2="559.217" y2="693.548" gradientUnits="userSpaceOnUse">
<stop stop-color="#EEF4F7"/>
<stop offset="1" stop-color="#99C0D8"/>
</linearGradient>
<linearGradient id="paint2_linear_468_1236" x1="406.789" y1="568.288" x2="406.789" y2="594.026" gradientUnits="userSpaceOnUse">
<stop stop-color="#EEF4F7"/>
<stop offset="1" stop-color="#99C0D8"/>
</linearGradient>
<linearGradient id="paint3_linear_468_1236" x1="690.196" y1="568.513" x2="690.196" y2="700.915" gradientUnits="userSpaceOnUse">
<stop stop-color="#EEF4F7"/>
<stop offset="1" stop-color="#99C0D8"/>
</linearGradient>
</defs>
</svg>
